if (_typeface_js && _typeface_js.loadFace) _typeface_js.loadFace({"glyphs":{"S":{"x_min":84.390625,"x_max":1327.078125,"ha":1440,"o":"m 84 259 b 469 -11 84 41 194 -11 l 835 -11 b 1327 304 1237 -11 1327 33 b 748 625 1327 597 1218 626 b 387 713 424 623 387 626 b 502 791 387 768 434 791 l 837 791 b 984 687 975 791 984 761 l 1286 687 l 1286 719 b 905 1016 1286 895 1253 1016 l 483 1016 b 85 694 102 1016 85 876 b 592 391 85 447 137 391 b 1016 298 981 391 1016 386 b 887 213 1016 220 951 213 l 517 213 b 386 329 430 213 387 222 l 84 329 l 84 259 "},"¦":{"x_min":57.171875,"x_max":245,"ha":308,"o":"m 57 937 l 57 451 l 245 451 l 245 937 l 57 937 m 57 243 l 57 -243 l 245 -243 l 245 243 l 57 243 "},"/":{"x_min":-78,"x_max":581,"ha":514,"o":"m -78 -11 l 128 -11 l 581 1016 l 374 1016 l -78 -11 "},"y":{"x_min":4,"x_max":970,"ha":994,"o":"m 223 -241 b 329 -247 248 -243 280 -247 b 580 -130 461 -247 540 -216 l 970 708 l 687 708 l 487 215 l 287 708 l 4 708 l 322 30 l 414 30 b 244 -72 414 -51 348 -72 l 223 -72 l 223 -241 "},"≈":{"x_min":46,"x_max":865.390625,"ha":940,"o":"m 776 682 b 619 575 727 612 677 575 b 476 629 567 575 541 590 b 305 682 429 658 380 682 b 46 529 202 682 96 609 l 131 435 b 301 541 180 493 231 541 b 440 494 356 541 398 516 b 627 435 508 457 555 435 b 865 587 706 435 793 483 l 776 682 m 776 381 b 616 274 722 310 680 274 b 474 331 556 274 521 305 b 305 383 429 358 379 383 b 46 229 203 383 96 310 l 131 136 b 303 243 180 194 228 243 b 440 195 354 243 394 220 b 624 135 504 161 553 135 b 865 288 710 135 794 186 l 776 381 "},"Ž":{"x_min":53.84375,"x_max":1223.046875,"ha":1304,"o":"m 53 0 l 1223 0 l 1223 241 l 501 241 l 501 244 l 1206 763 l 1206 1005 l 72 1005 l 72 763 l 760 763 l 760 760 l 53 241 l 53 0 m 501 1083 l 776 1083 l 980 1358 l 749 1358 l 639 1210 l 528 1358 l 297 1358 l 501 1083 "},"Á":{"x_min":5,"x_max":1474,"ha":1510,"o":"m 5 0 l 342 0 l 431 177 l 1043 177 l 1137 0 l 1474 0 l 932 1005 l 538 1005 l 5 0 m 734 772 l 930 394 l 544 394 l 734 772 m 571 1083 l 787 1083 l 1076 1358 l 745 1358 l 571 1083 "},"g":{"x_min":72.140625,"x_max":1019.46875,"ha":1132,"o":"m 72 344 b 402 50 72 152 149 50 l 540 50 b 774 123 679 50 722 70 l 774 76 b 604 -80 774 -42 718 -80 l 415 -80 b 351 -26 372 -80 351 -59 l 81 -26 b 356 -247 81 -204 181 -247 l 645 -247 b 1019 44 973 -247 1019 -102 l 1019 708 l 774 708 l 774 611 l 771 611 b 543 719 706 702 675 719 l 390 719 b 72 441 182 719 72 661 l 72 344 m 484 241 b 325 383 355 241 325 276 b 484 527 325 491 355 527 l 612 527 b 771 383 741 527 771 491 b 612 241 771 276 741 241 l 484 241 "},"²":{"x_min":59.890625,"x_max":813.953125,"ha":892,"o":"m 59 406 l 813 406 l 813 556 l 266 556 b 362 608 266 590 280 604 l 564 619 b 801 838 766 630 801 661 b 568 1016 801 965 752 1016 l 310 1016 b 59 858 133 1016 59 976 l 59 787 l 272 787 l 272 791 b 381 866 272 854 298 866 l 458 866 b 589 805 583 866 589 855 b 436 755 589 766 579 765 l 238 741 b 59 611 111 733 59 684 l 59 406 "},"–":{"x_min":0,"x_max":680.5625,"ha":694,"o":"m 0 263 l 680 263 l 680 438 l 0 438 l 0 263 "},"ë":{"x_min":57.171875,"x_max":952.78125,"ha":1031,"o":"m 57 325 b 412 -11 57 22 239 -11 l 608 -11 b 952 205 797 -11 952 27 l 952 236 l 707 236 b 559 155 707 194 700 155 l 479 155 b 318 251 370 155 318 176 l 318 294 l 952 294 l 952 413 b 560 719 952 659 838 719 l 378 719 b 57 393 187 719 57 661 l 57 325 m 318 452 b 509 552 318 537 338 552 b 699 452 661 552 699 537 l 318 452 m 189 845 l 450 845 l 450 1054 l 189 1054 l 189 845 m 559 845 l 820 845 l 820 1054 l 559 1054 l 559 845 "},"ƒ":{"x_min":98.078125,"x_max":1246.921875,"ha":1372,"o":"m 211 359 l 521 359 l 472 118 b 242 -30 441 -23 360 -30 b 98 -11 185 -30 113 -16 l 98 -229 b 299 -247 144 -240 226 -247 b 743 59 613 -247 718 -59 l 801 359 l 1176 359 l 1176 576 l 844 576 l 857 636 b 1061 800 886 770 929 800 b 1246 776 1091 800 1185 788 l 1246 1000 b 1022 1016 1172 1013 1110 1016 b 596 698 829 1016 661 987 l 567 576 l 211 576 l 211 359 "},"Î":{"x_min":-72.140625,"x_max":611.140625,"ha":550,"o":"m 118 0 l 420 0 l 420 1005 l 118 1005 l 118 0 m -72 1083 l 157 1083 l 268 1233 l 377 1083 l 611 1083 l 405 1358 l 130 1358 l -72 1083 "},"e":{"x_min":57.171875,"x_max":952.78125,"ha":1031,"o":"m 57 325 b 412 -11 57 22 239 -11 l 608 -11 b 952 205 797 -11 952 27 l 952 236 l 707 236 b 559 155 707 194 700 155 l 479 155 b 318 251 370 155 318 176 l 318 294 l 952 294 l 952 413 b 560 719 952 659 838 719 l 378 719 b 57 393 187 719 57 661 l 57 325 m 318 452 b 509 552 318 537 338 552 b 699 452 661 552 699 537 l 318 452 "},"Ã":{"x_min":5,"x_max":1474,"ha":1510,"o":"m 5 0 l 342 0 l 431 177 l 1043 177 l 1137 0 l 1474 0 l 932 1005 l 538 1005 l 5 0 m 734 772 l 930 394 l 544 394 l 734 772 m 525 1088 b 609 1170 530 1134 564 1170 b 868 1103 669 1170 763 1103 b 1084 1338 1008 1103 1068 1212 l 955 1338 b 876 1262 949 1299 917 1262 b 757 1301 849 1262 805 1281 b 614 1338 710 1319 658 1338 b 395 1088 488 1338 409 1202 l 525 1088 "},"J":{"x_min":34.03125,"x_max":1039.890625,"ha":1165,"o":"m 34 312 b 420 -11 34 77 137 -11 l 617 -11 b 1039 319 891 -11 1039 43 l 1039 1005 l 737 1005 l 737 344 b 579 238 737 251 679 238 l 460 238 b 328 344 366 238 328 269 l 328 433 l 34 433 l 34 312 "},"»":{"x_min":-14,"x_max":720,"ha":721,"o":"m 325 106 l 555 106 l 720 352 l 555 595 l 325 595 l 488 352 l 325 106 m -14 106 l 216 106 l 380 352 l 216 595 l -14 595 l 149 352 l -14 106 "},"∆":{"x_min":35.109375,"x_max":1126.71875,"ha":1186,"o":"m 35 0 l 1126 0 l 1126 122 l 741 1012 l 424 1012 l 35 122 l 35 0 m 319 190 l 493 634 b 561 826 515 695 548 781 l 570 826 b 647 620 589 763 623 680 l 820 190 l 319 190 "},"©":{"x_min":40.828125,"x_max":1048.0625,"ha":1111,"o":"m 654 427 b 549 345 647 370 604 345 b 432 504 481 345 432 412 b 553 658 432 595 475 658 b 657 584 609 658 646 634 l 788 584 b 548 791 764 720 671 791 b 277 501 381 791 277 668 b 551 212 277 338 386 212 b 793 427 669 212 771 284 l 654 427 m 544 138 b 204 502 348 138 204 280 b 544 866 204 725 348 866 b 884 502 740 866 884 725 b 544 138 884 280 740 138 m 40 502 b 544 -11 40 219 266 -11 b 1048 502 822 -11 1048 219 b 544 1016 1048 786 822 1016 b 40 502 266 1016 40 786 "},"˘":{"x_min":-80.3125,"x_max":551.25,"ha":481,"o":"m -80 1106 b 223 826 -80 923 54 826 b 551 1106 397 826 544 915 l 420 1106 b 247 984 412 1019 325 984 b 50 1106 161 984 65 1005 l -80 1106 "},"≥":{"x_min":77.578125,"x_max":842.53125,"ha":940,"o":"m 78 987 l 78 838 l 694 588 l 694 586 l 80 334 l 80 186 l 842 513 l 842 658 l 78 987 m 834 -5 l 834 133 l 77 133 l 77 -5 l 834 -5 "},"ò":{"x_min":72.140625,"x_max":1037.171875,"ha":1132,"o":"m 72 269 b 359 -11 72 36 225 -11 l 749 -11 b 1037 269 883 -11 1037 36 l 1037 438 b 749 719 1037 672 883 719 l 359 719 b 72 438 225 719 72 672 l 72 269 m 333 387 b 511 519 333 488 392 519 l 574 519 b 775 402 743 519 775 497 l 775 305 b 574 188 775 211 743 188 l 511 188 b 333 320 392 188 333 219 l 333 387 m 507 826 l 724 826 l 549 1101 l 219 1101 l 507 826 "},"^":{"x_min":88,"x_max":728,"ha":833,"o":"m 88 499 l 269 499 l 408 814 l 546 499 l 728 499 l 491 1005 l 324 1005 l 88 499 "},"«":{"x_min":-13.890625,"x_max":720,"ha":721,"o":"m 150 106 l 380 106 l 217 350 l 380 595 l 150 595 l -13 350 l 150 106 m 489 106 l 720 106 l 556 350 l 720 595 l 489 595 l 325 350 l 489 106 "},"D":{"x_min":112.96875,"x_max":1433.25,"ha":1544,"o":"m 112 0 l 1024 0 b 1433 350 1327 0 1433 101 l 1433 655 b 1024 1005 1433 904 1327 1005 l 112 1005 l 112 0 m 415 755 l 951 755 b 1131 575 1080 755 1131 718 l 1131 438 b 951 258 1131 295 1080 258 l 415 258 l 415 755 "},"∙":{"x_min":172.859375,"x_max":499.53125,"ha":686,"o":"m 172 480 b 336 313 172 388 246 313 b 499 480 426 313 499 388 b 336 647 499 572 426 647 b 172 480 246 647 172 572 "},"ł":{"x_min":28.578125,"x_max":442.359375,"ha":481,"o":"m 104 0 l 366 0 l 366 505 l 442 546 l 442 708 l 366 663 l 366 1005 l 104 1005 l 104 521 l 28 480 l 28 321 l 104 363 l 104 0 "},"ÿ":{"x_min":4.078125,"x_max":970.46875,"ha":994,"o":"m 223 -241 b 329 -247 249 -243 280 -247 b 581 -130 461 -247 540 -216 l 970 708 l 687 708 l 487 215 l 287 708 l 4 708 l 322 30 l 415 30 b 245 -72 415 -51 348 -72 l 223 -72 l 223 -241 m 171 845 l 432 845 l 432 1054 l 171 1054 l 171 845 m 541 845 l 803 845 l 803 1054 l 541 1054 l 541 845 "},"Ł":{"x_min":25.859375,"x_max":1083.453125,"ha":1132,"o":"m 100 0 l 1083 0 l 1083 258 l 402 258 l 402 477 l 645 608 l 645 791 l 402 661 l 402 1005 l 100 1005 l 100 497 l 25 456 l 25 272 l 100 313 l 100 0 "},"í":{"x_min":66.6875,"x_max":571.671875,"ha":481,"o":"m 104 0 l 366 0 l 366 708 l 104 708 l 104 0 m 66 826 l 283 826 l 571 1101 l 240 1101 l 66 826 "},"ˆ":{"x_min":-106,"x_max":577,"ha":481,"o":"m -106 826 l 123 826 l 234 976 l 342 826 l 577 826 l 371 1101 l 96 1101 l -106 826 "},"w":{"x_min":7.78125,"x_max":1505,"ha":1544,"o":"m 274 0 l 623 0 l 755 383 l 757 383 l 889 0 l 1238 0 l 1505 708 l 1219 708 l 1061 191 l 1058 191 l 876 708 l 636 708 l 454 191 l 451 191 l 293 708 l 7 708 l 274 0 "},"$":{"x_min":81.671875,"x_max":1263.109375,"ha":1372,"o":"m 559 634 b 360 718 372 634 360 668 b 453 791 360 773 379 791 l 601 791 l 601 634 l 559 634 m 748 388 b 985 312 950 388 985 377 b 877 222 985 236 950 222 l 748 222 l 748 388 m 81 273 b 385 -11 81 79 191 -11 l 601 -11 l 601 -102 l 748 -102 l 748 -11 l 854 -11 b 1263 311 1128 -11 1263 59 b 748 630 1263 538 1143 630 l 748 791 l 853 791 b 970 723 952 791 970 775 l 1231 723 b 945 1016 1231 947 1090 1016 l 748 1016 l 748 1102 l 601 1102 l 601 1016 l 374 1016 b 91 733 178 1016 91 930 b 601 393 91 505 156 393 l 601 222 l 417 222 b 351 315 359 222 351 251 l 81 315 l 81 273 "},"∫":{"x_min":6.8125,"x_max":617.953125,"ha":636,"o":"m 617 1211 b 514 1229 598 1219 555 1229 b 311 1161 441 1229 360 1209 b 206 831 239 1091 206 997 b 235 150 206 587 235 412 b 189 -56 235 31 219 -19 b 110 -88 170 -77 141 -88 b 35 -73 81 -88 53 -81 l 6 -229 b 147 -254 38 -244 100 -254 b 374 -131 234 -254 323 -218 b 431 144 406 -76 431 18 b 404 805 431 401 404 573 b 442 1031 404 922 412 990 b 529 1073 458 1056 492 1073 b 593 1062 552 1073 575 1069 l 617 1211 "},"\\":{"x_min":-77.78125,"x_max":581,"ha":514,"o":"m 374 -11 l 581 -11 l 129 1016 l -77 1016 l 374 -11 "},"Ì":{"x_min":-66.6875,"x_max":438.28125,"ha":550,"o":"m 118 0 l 420 0 l 420 1005 l 118 1005 l 118 0 m 221 1083 l 438 1083 l 264 1358 l -66 1358 l 221 1083 "},"µ":{"x_min":89.828125,"x_max":1019.46875,"ha":1132,"o":"m 89 -247 l 351 -247 l 351 66 l 353 66 b 536 -11 385 12 417 -11 b 755 113 661 -11 709 15 l 758 113 l 758 0 l 1019 0 l 1019 708 l 758 708 l 758 351 b 579 197 758 250 691 197 l 519 197 b 351 301 405 197 351 231 l 351 708 l 89 708 l 89 -247 "},"Ç":{"x_min":80.3125,"x_max":1365.203125,"ha":1475,"o":"m 80 352 b 514 -11 80 58 242 -11 l 681 -11 l 585 -170 l 624 -202 b 699 -190 649 -193 673 -190 b 774 -256 735 -190 774 -211 b 683 -323 774 -309 728 -323 b 534 -290 634 -323 582 -306 l 499 -376 b 713 -423 567 -400 639 -423 b 945 -245 823 -423 945 -376 b 774 -106 945 -152 856 -106 b 715 -113 755 -106 735 -109 l 782 -11 l 1001 -11 b 1365 291 1305 -11 1365 122 l 1365 386 l 1063 386 b 886 247 1063 261 1022 247 l 563 247 b 390 448 420 247 390 302 l 390 556 b 579 758 390 681 420 758 l 909 758 b 1050 665 999 758 1050 737 l 1050 637 l 1352 637 b 869 1016 1355 922 1299 1016 l 514 1016 b 80 652 242 1016 80 947 l 80 352 "},"’":{"x_min":72.140625,"x_max":398.8125,"ha":481,"o":"m 72 450 l 138 450 b 398 677 353 450 398 518 l 398 1005 l 121 1005 l 121 738 l 191 738 l 191 679 b 119 608 191 631 166 608 l 72 608 l 72 450 "},"-":{"x_min":111.609375,"x_max":492.71875,"ha":617,"o":"m 111 226 l 492 226 l 492 476 l 111 476 l 111 226 "},"Q":{"x_min":80.0625,"x_max":1545.984375,"ha":1544,"o":"m 390 556 b 579 758 390 681 420 758 l 933 758 b 1122 556 1092 758 1122 681 l 1122 454 l 836 633 l 711 427 l 996 251 l 996 248 b 949 247 982 248 966 247 l 563 247 b 390 448 420 247 390 302 l 390 556 m 80 352 b 514 -11 80 58 242 -11 l 998 -11 b 1309 54 1130 -11 1235 5 l 1420 -11 l 1545 190 l 1426 265 b 1433 352 1431 293 1433 320 l 1433 652 b 998 1016 1433 947 1271 1016 l 514 1016 b 80 652 242 1016 80 947 l 80 352 "},"M":{"x_min":102.078125,"x_max":1713.640625,"ha":1853,"o":"m 102 0 l 396 0 l 396 722 l 398 722 l 794 0 l 1020 0 l 1416 722 l 1419 722 l 1419 0 l 1713 0 l 1713 1005 l 1249 1005 l 907 358 l 566 1005 l 102 1005 l 102 0 "},"C":{"x_min":80.3125,"x_max":1365.203125,"ha":1475,"o":"m 80 352 b 514 -11 80 58 242 -11 l 1001 -11 b 1365 291 1305 -11 1365 122 l 1365 386 l 1063 386 b 886 247 1063 261 1022 247 l 563 247 b 390 448 420 247 390 302 l 390 556 b 579 758 390 681 420 758 l 909 758 b 1050 665 999 758 1050 737 l 1050 637 l 1352 637 b 869 1016 1355 922 1299 1016 l 514 1016 b 80 652 242 1016 80 947 l 80 352 "},"œ":{"x_min":57.171875,"x_max":1656.46875,"ha":1749,"o":"m 318 387 b 496 519 318 488 377 519 l 559 519 b 760 402 728 519 760 497 l 760 305 b 559 188 760 211 728 188 l 496 188 b 318 320 377 188 318 219 l 318 387 m 57 269 b 344 -11 57 36 210 -11 l 600 -11 b 886 98 797 -11 868 43 l 888 98 b 1125 -11 911 29 958 -11 l 1312 -11 b 1656 205 1501 -11 1656 27 l 1656 236 l 1411 236 b 1263 155 1411 194 1404 155 l 1182 155 b 1022 251 1073 155 1022 176 l 1022 294 l 1656 294 l 1656 413 b 1264 719 1656 659 1542 719 l 1155 719 b 888 587 980 719 906 672 l 886 587 b 634 719 879 634 838 719 l 344 719 b 57 438 210 719 57 672 l 57 269 m 1022 452 b 1212 552 1022 537 1042 552 b 1403 452 1365 552 1403 537 l 1022 452 "},"!":{"x_min":193.28125,"x_max":479.109375,"ha":686,"o":"m 193 0 l 479 0 l 479 283 l 193 283 l 193 0 m 209 401 l 462 401 l 475 766 l 475 1005 l 197 1005 l 197 766 l 209 401 "},"ç":{"x_min":56.6875,"x_max":983.609375,"ha":1063,"o":"m 56 324 b 411 -11 56 22 239 -11 l 480 -11 l 383 -170 l 422 -202 b 497 -190 447 -193 471 -190 b 572 -256 533 -190 572 -211 b 481 -323 572 -309 526 -323 b 333 -290 432 -323 380 -306 l 297 -376 b 511 -423 365 -400 437 -423 b 744 -245 621 -423 744 -376 b 572 -106 744 -152 654 -106 b 514 -113 553 -106 533 -109 l 580 -11 l 678 -11 b 983 233 828 -11 983 43 l 983 295 l 730 295 l 730 279 b 590 197 730 213 663 197 l 456 197 b 318 316 375 197 318 224 l 318 411 b 478 519 318 488 369 519 l 579 519 b 730 420 693 519 730 493 l 983 420 l 983 484 b 671 719 983 647 865 719 l 377 719 b 56 393 187 719 56 661 l 56 324 "},"È":{"x_min":102.078125,"x_max":1197.78125,"ha":1304,"o":"m 102 0 l 1197 0 l 1197 241 l 404 241 l 404 402 l 1139 402 l 1139 611 l 404 611 l 404 772 l 1180 772 l 1180 1005 l 102 1005 l 102 0 m 592 1083 l 808 1083 l 634 1358 l 303 1358 l 592 1083 "},"ﬁ":{"x_min":21.78125,"x_max":1019.46875,"ha":1132,"o":"m 758 0 l 1019 0 l 1019 708 l 758 708 l 758 0 m 758 797 l 1019 797 l 1019 1005 l 758 1005 l 758 797 m 141 0 l 402 0 l 402 525 l 650 525 l 650 708 l 402 708 l 402 741 b 532 833 402 813 427 833 b 638 829 563 833 601 830 l 638 1009 b 461 1016 585 1011 532 1016 b 141 762 240 1016 141 956 l 141 708 l 21 708 l 21 525 l 141 525 l 141 0 "},"{":{"x_min":29.9375,"x_max":511.78125,"ha":686,"o":"m 29 443 b 123 368 62 443 123 436 l 123 148 b 304 0 123 44 234 0 l 511 0 l 511 150 l 464 150 b 385 219 390 150 385 190 l 385 393 b 232 505 383 495 285 502 l 232 509 b 385 612 285 511 383 529 l 385 786 b 464 855 385 815 390 855 l 511 855 l 511 1005 l 304 1005 b 123 856 234 1005 123 961 l 123 636 b 29 570 123 576 62 570 l 29 443 "},"X":{"x_min":10,"x_max":1472,"ha":1511,"o":"m 10 0 l 415 0 l 741 365 l 1066 0 l 1472 0 l 988 504 l 1437 1005 l 1047 1005 l 741 654 l 434 1005 l 44 1005 l 493 504 l 10 0 "},"ô":{"x_min":71.8125,"x_max":1037.171875,"ha":1132,"o":"m 71 269 b 359 -11 71 35 225 -11 l 749 -11 b 1037 269 883 -11 1037 35 l 1037 438 b 749 719 1037 671 883 719 l 359 719 b 71 438 225 719 71 671 l 71 269 m 333 387 b 511 519 333 488 391 519 l 574 519 b 775 402 743 519 775 496 l 775 305 b 574 188 775 210 743 188 l 511 188 b 333 320 391 188 333 219 l 333 387 m 213 826 l 443 826 l 553 976 l 662 826 l 896 826 l 691 1101 l 416 1101 l 213 826 "},"¼":{"x_min":110.6875,"x_max":1844.75,"ha":2056,"o":"m 1066 106 l 1538 106 l 1538 0 l 1750 0 l 1750 106 l 1844 106 l 1844 265 l 1750 265 l 1750 598 l 1524 598 l 1066 336 l 1066 106 m 1538 265 l 1245 265 l 1245 268 l 1538 431 l 1538 265 m 440 -11 l 611 -11 l 1379 1016 l 1213 1016 l 440 -11 m 436 406 l 640 406 l 640 1005 l 381 1005 l 110 838 l 199 695 l 436 838 l 436 406 "},"#":{"x_min":320.96875,"x_max":1023.03125,"ha":1372,"o":"m 635 569 l 726 569 l 708 436 l 617 436 l 635 569 m 320 269 l 427 269 l 391 0 l 560 0 l 595 269 l 686 269 l 651 0 l 820 0 l 855 269 l 983 269 l 983 436 l 877 436 l 895 569 l 1023 569 l 1023 736 l 916 736 l 952 1005 l 783 1005 l 748 736 l 657 736 l 692 1005 l 523 1005 l 488 736 l 360 736 l 360 569 l 466 569 l 448 436 l 320 436 l 320 269 "},"Ê":{"x_min":101.890625,"x_max":1197.59375,"ha":1304,"o":"m 101 0 l 1197 0 l 1197 241 l 404 241 l 404 402 l 1139 402 l 1139 610 l 404 610 l 404 771 l 1179 771 l 1179 1005 l 101 1005 l 101 0 m 297 1083 l 527 1083 l 638 1233 l 747 1083 l 981 1083 l 775 1358 l 500 1358 l 297 1083 "},")":{"x_min":81.671875,"x_max":548.53125,"ha":686,"o":"m 81 -11 l 255 -11 b 548 290 438 -11 548 62 l 548 715 b 255 1016 548 943 438 1016 l 81 1016 l 81 791 l 179 791 b 287 687 250 791 287 768 l 287 318 b 179 213 287 237 250 213 l 81 213 l 81 -11 "},"Å":{"x_min":5.71875,"x_max":1474.359375,"ha":1510,"o":"m 5 0 l 343 0 l 431 177 l 1044 177 l 1138 0 l 1474 0 l 932 1005 l 539 1005 l 5 0 m 735 772 l 931 394 l 544 394 l 735 772 m 547 1280 b 740 1083 547 1172 634 1083 b 934 1280 846 1083 934 1172 b 740 1477 934 1388 846 1477 b 547 1280 634 1477 547 1388 m 653 1280 b 740 1369 653 1328 693 1369 b 827 1280 788 1369 827 1328 b 740 1191 827 1231 788 1191 b 653 1280 693 1191 653 1231 "},"ø":{"x_min":20.25,"x_max":1088.75,"ha":1132,"o":"m 333 387 b 511 519 333 488 391 519 l 574 519 b 677 513 617 519 651 517 l 337 284 b 333 320 334 294 333 306 l 333 387 m 774 427 b 775 402 775 419 775 410 l 775 305 b 574 188 775 211 743 188 l 511 188 b 431 195 480 188 453 191 l 774 427 m 71 254 b 99 123 71 201 81 159 l 20 70 l 92 -33 l 186 30 b 359 -11 236 -1 299 -11 l 749 -11 b 1037 254 883 -11 1037 40 l 1037 452 b 1011 585 1037 508 1027 551 l 1088 635 l 1016 741 l 922 677 b 749 719 872 709 808 719 l 446 719 b 71 420 161 719 71 670 l 71 254 "},"â":{"x_min":45.90625,"x_max":963.125,"ha":1063,"o":"m 45 190 b 307 -10 45 23 147 -12 l 485 -10 b 715 80 616 -10 643 4 l 715 0 l 963 0 l 963 465 b 688 719 963 631 867 719 l 384 719 b 71 495 164 719 71 687 l 324 495 b 425 552 327 545 349 552 l 579 552 b 701 458 681 552 701 527 l 701 396 b 429 452 651 448 572 452 b 45 248 176 452 45 441 l 45 190 m 436 155 b 299 219 334 155 299 173 b 432 303 299 278 322 303 l 548 303 b 707 230 692 303 707 283 b 511 155 707 183 690 155 l 436 155 m 179 826 l 409 826 l 519 976 l 628 826 l 862 826 l 656 1101 l 382 1101 l 179 826 "},"}":{"x_min":160.609375,"x_max":642.453125,"ha":686,"o":"m 160 0 l 367 0 b 548 148 438 0 548 44 l 548 369 b 642 434 548 429 609 434 l 642 562 b 548 637 609 562 548 569 l 548 856 b 367 1005 548 961 438 1005 l 160 1005 l 160 855 l 208 855 b 287 786 281 855 287 815 l 287 612 b 439 500 288 509 386 502 l 439 495 b 287 393 386 494 288 476 l 287 219 b 208 150 287 190 281 150 l 160 150 l 160 0 "},"‰":{"x_min":12.375,"x_max":1802.140625,"ha":1851,"o":"m 386 -11 l 507 -11 l 830 1016 l 709 1016 l 386 -11 m 1445 325 b 1550 394 1445 380 1468 394 b 1655 325 1632 394 1655 380 l 1655 184 b 1550 113 1655 120 1638 113 b 1445 184 1461 113 1445 120 l 1445 325 m 159 822 b 264 891 159 877 182 891 b 369 822 345 891 369 877 l 369 681 b 264 611 369 618 352 611 b 159 681 175 611 159 618 l 159 822 m 848 325 b 952 394 848 380 871 394 b 1057 325 1034 394 1057 380 l 1057 184 b 952 113 1057 120 1041 113 b 848 184 864 116 848 118 l 848 325 m 701 184 b 952 -11 701 15 779 -11 b 1204 184 1125 -11 1204 15 l 1204 323 b 952 519 1204 493 1125 519 b 701 323 779 519 701 493 l 701 184 m 12 681 b 264 486 12 512 91 486 b 515 681 437 486 515 512 l 515 820 b 264 1016 515 990 437 1016 b 12 820 91 1016 12 990 l 12 681 m 1298 187 b 1550 -8 1298 18 1377 -8 b 1802 187 1723 -8 1802 18 l 1802 326 b 1550 522 1802 495 1723 522 b 1298 326 1377 522 1298 495 l 1298 187 "},"Ä":{"x_min":5.375,"x_max":1474.015625,"ha":1510,"o":"m 5 0 l 342 0 l 431 177 l 1043 177 l 1137 0 l 1474 0 l 932 1005 l 538 1005 l 5 0 m 734 772 l 930 394 l 544 394 l 734 772 m 424 1102 l 685 1102 l 685 1310 l 424 1310 l 424 1102 m 794 1102 l 1056 1102 l 1056 1310 l 794 1310 l 794 1102 "},"¸":{"x_min":23.09375,"x_max":469.546875,"ha":481,"o":"m 23 -376 b 236 -423 91 -400 163 -423 b 469 -245 347 -423 469 -376 b 298 -106 469 -152 379 -106 b 239 -113 278 -106 258 -109 l 313 0 l 212 0 l 108 -170 l 148 -202 b 223 -190 172 -193 197 -190 b 298 -256 258 -190 298 -211 b 206 -323 298 -309 251 -323 b 58 -290 157 -323 106 -306 l 23 -376 "},"a":{"x_min":46.28125,"x_max":963.671875,"ha":1063,"o":"m 46 190 b 307 -10 46 23 148 -12 l 485 -10 b 715 80 616 -10 643 4 l 715 0 l 963 0 l 963 465 b 688 719 963 632 868 719 l 385 719 b 72 496 164 719 72 687 l 325 496 b 426 553 328 546 349 553 l 579 553 b 702 458 681 553 702 528 l 702 396 b 430 453 651 448 573 453 b 46 248 176 453 46 441 l 46 190 m 436 155 b 299 219 334 155 299 173 b 432 303 299 278 322 303 l 548 303 b 707 230 692 303 707 283 b 511 155 707 183 691 155 l 436 155 "},"—":{"x_min":0,"x_max":1361.109375,"ha":1389,"o":"m 0 263 l 1361 263 l 1361 438 l 0 438 l 0 263 "},"=":{"x_min":63.96875,"x_max":752.703125,"ha":833,"o":"m 63 426 l 752 426 l 752 618 l 63 618 l 63 426 m 63 84 l 752 84 l 752 276 l 63 276 l 63 84 "},"N":{"x_min":102.078125,"x_max":1442.78125,"ha":1576,"o":"m 102 0 l 404 0 l 404 730 l 406 730 l 974 0 l 1442 0 l 1442 1005 l 1140 1005 l 1140 275 l 1137 275 l 570 1005 l 102 1005 l 102 0 "},"˚":{"x_min":42.1875,"x_max":428.75,"ha":481,"o":"m 42 1023 b 235 826 42 915 129 826 b 428 1023 341 826 428 915 b 235 1220 428 1131 341 1220 b 42 1023 129 1220 42 1131 m 148 1023 b 235 1112 148 1072 187 1112 b 322 1023 283 1112 322 1072 b 235 934 322 975 283 934 b 148 1023 187 934 148 975 "},"ú":{"x_min":89.515625,"x_max":1019.15625,"ha":1132,"o":"m 1019 708 l 757 708 l 757 351 b 579 197 757 250 691 197 l 519 197 b 350 301 405 197 350 231 l 350 708 l 89 708 l 89 301 b 477 -11 89 -4 315 -11 b 755 113 617 -11 708 15 l 757 113 l 757 0 l 1019 0 l 1019 708 m 386 826 l 602 826 l 891 1101 l 560 1101 l 386 826 "},"⁄":{"x_min":-318,"x_max":621,"ha":308,"o":"m -318 -11 l -146 -11 l 621 1016 l 454 1016 l -318 -11 "},"2":{"x_min":95.28125,"x_max":1249.5,"ha":1372,"o":"m 95 0 l 1249 0 l 1249 216 l 372 216 b 518 338 372 306 392 331 l 830 355 b 1235 720 1182 375 1235 425 b 879 1016 1235 930 1162 1016 l 481 1016 b 95 751 209 1016 95 950 l 95 633 l 381 633 l 381 676 b 548 800 381 780 420 800 l 748 800 b 950 700 941 800 950 781 b 714 583 950 601 935 597 l 368 561 b 95 341 174 547 95 465 l 95 0 "},"ü":{"x_min":89.828125,"x_max":1019.46875,"ha":1132,"o":"m 1019 708 l 758 708 l 758 351 b 579 197 758 250 691 197 l 519 197 b 351 301 405 197 351 231 l 351 708 l 89 708 l 89 301 b 477 -11 89 -4 315 -11 b 755 113 617 -11 709 15 l 758 113 l 758 0 l 1019 0 l 1019 708 m 239 845 l 500 845 l 500 1054 l 239 1054 l 239 845 m 609 845 l 871 845 l 871 1054 l 609 1054 l 609 845 "},"¯":{"x_min":-92.5625,"x_max":563.5,"ha":481,"o":"m -92 880 l 563 880 l 563 1038 l -92 1038 l -92 880 "},"Z":{"x_min":54.4375,"x_max":1223.640625,"ha":1304,"o":"m 54 0 l 1223 0 l 1223 241 l 502 241 l 502 244 l 1207 763 l 1207 1005 l 73 1005 l 73 763 l 760 763 l 760 761 l 54 241 l 54 0 "},"u":{"x_min":89.828125,"x_max":1019.46875,"ha":1132,"o":"m 1019 708 l 758 708 l 758 351 b 579 197 758 250 691 197 l 519 197 b 351 301 405 197 351 231 l 351 708 l 89 708 l 89 301 b 477 -11 89 -4 315 -11 b 755 113 617 -11 709 15 l 758 113 l 758 0 l 1019 0 l 1019 708 "},"˜":{"x_min":-108.71875,"x_max":580,"ha":481,"o":"m 20 831 b 104 913 26 877 60 913 b 363 847 164 913 258 847 b 580 1081 503 847 563 955 l 450 1081 b 371 1005 445 1043 412 1005 b 253 1044 344 1005 300 1025 b 110 1081 205 1062 153 1081 b -108 831 -16 1081 -95 945 l 20 831 "},"Ó":{"x_min":80.3125,"x_max":1433.25,"ha":1544,"o":"m 80 352 b 514 -11 80 58 242 -11 l 999 -11 b 1433 352 1271 -11 1433 58 l 1433 652 b 999 1016 1433 947 1271 1016 l 514 1016 b 80 652 242 1016 80 947 l 80 352 m 390 556 b 579 758 390 681 420 758 l 933 758 b 1122 556 1092 758 1122 681 l 1122 448 b 950 247 1122 302 1092 247 l 563 247 b 390 448 420 247 390 302 l 390 556 m 588 1083 l 804 1083 l 1092 1358 l 762 1358 l 588 1083 "},"k":{"x_min":89.828125,"x_max":1015.390625,"ha":1063,"o":"m 89 0 l 351 0 l 351 283 l 402 283 l 681 0 l 1015 0 l 624 376 l 973 708 l 630 708 l 400 475 l 351 475 l 351 1005 l 89 1005 l 89 0 "},"ˇ":{"x_min":-106.28125,"x_max":577,"ha":481,"o":"m 97 826 l 372 826 l 577 1101 l 345 1101 l 235 953 l 125 1101 l -106 1101 l 97 826 "},"Ù":{"x_min":102.078125,"x_max":1343.421875,"ha":1475,"o":"m 102 358 b 506 -11 102 108 228 -11 l 939 -11 b 1343 358 1216 -11 1343 108 l 1343 1005 l 1041 1005 l 1041 425 b 872 247 1041 297 996 247 l 573 247 b 404 425 449 247 404 297 l 404 1005 l 102 1005 l 102 358 m 675 1083 l 891 1083 l 717 1358 l 386 1358 l 675 1083 "},"Ÿ":{"x_min":9.53125,"x_max":1403.3125,"ha":1442,"o":"m 555 0 l 857 0 l 857 350 l 1403 1005 l 1038 1005 l 706 594 l 374 1005 l 9 1005 l 555 350 l 555 0 m 390 1102 l 651 1102 l 651 1311 l 390 1311 l 390 1102 m 760 1102 l 1022 1102 l 1022 1311 l 760 1311 l 760 1102 "},"€":{"x_min":23.140625,"x_max":1333.890625,"ha":1372,"o":"m 1333 947 b 929 1016 1230 997 1165 1016 l 628 1016 b 194 670 360 1016 201 950 l 81 670 l 23 529 l 194 529 l 194 476 l 84 476 l 25 334 l 194 334 b 628 -11 201 55 360 -11 l 947 -11 b 1269 59 1098 -11 1201 9 l 1269 315 b 970 238 1199 256 1082 238 l 661 238 b 496 334 558 238 515 268 l 1075 334 l 1135 476 l 488 476 l 488 529 l 1155 529 l 1214 670 l 500 670 b 677 766 521 729 567 766 l 959 766 b 1229 700 1029 766 1167 761 l 1333 947 "},"¢":{"x_min":207.703125,"x_max":1136.25,"ha":1372,"o":"m 469 411 b 629 519 469 488 520 519 l 632 519 l 546 205 b 469 316 499 217 469 251 l 469 411 m 207 324 b 488 -8 207 65 342 4 l 439 -186 l 591 -186 l 640 -11 l 829 -11 b 1136 233 979 -11 1136 42 l 1136 297 l 883 297 l 883 279 b 741 197 883 213 814 197 l 697 197 l 786 515 b 879 417 854 505 879 477 l 1124 417 l 1124 484 b 842 718 1124 637 1017 711 l 891 894 l 735 894 l 688 719 l 529 719 b 207 392 338 719 207 661 l 207 324 "},"Ω":{"x_min":66.6875,"x_max":1237.25,"ha":1332,"o":"m 307 188 l 66 188 l 66 0 l 590 0 l 590 147 b 353 508 451 213 353 345 b 657 820 353 698 487 820 b 954 512 838 820 954 676 b 717 147 954 329 853 229 l 717 0 l 1237 0 l 1237 188 l 990 188 l 990 193 b 1218 556 1113 269 1218 375 b 654 1005 1218 806 1001 1005 b 87 559 308 1005 87 808 b 307 193 87 373 205 252 l 307 188 "},"ß":{"x_min":89.828125,"x_max":1027.640625,"ha":1132,"o":"m 89 0 l 351 0 l 351 698 b 499 825 351 801 375 825 l 592 825 b 717 733 677 825 717 812 b 596 634 717 656 668 633 l 487 634 l 487 459 l 585 459 b 766 366 726 459 766 441 l 766 291 b 609 180 766 211 702 180 b 487 190 573 180 530 187 l 487 -2 b 720 -11 544 -5 602 -11 b 1027 280 999 -11 1027 111 l 1027 355 b 862 566 1027 484 971 547 l 862 569 b 970 758 941 602 970 651 b 656 1016 970 931 887 1016 l 394 1016 b 89 729 227 1016 89 931 l 89 0 "},"é":{"x_min":57.46875,"x_max":953.078125,"ha":1031,"o":"m 57 325 b 412 -11 57 22 239 -11 l 608 -11 b 953 205 797 -11 953 27 l 953 236 l 708 236 b 559 155 708 194 701 155 l 479 155 b 318 251 370 155 318 176 l 318 294 l 953 294 l 953 413 b 561 719 953 659 838 719 l 378 719 b 57 393 188 719 57 661 l 57 325 m 318 452 b 509 552 318 537 339 552 b 699 452 661 552 699 537 l 318 452 m 336 826 l 552 826 l 841 1101 l 510 1101 l 336 826 "},"s":{"x_min":63.96875,"x_max":1012.671875,"ha":1099,"o":"m 63 220 b 393 -11 63 45 152 -11 l 641 -11 b 1012 225 939 -11 1012 37 b 676 458 1012 351 989 458 l 495 458 b 338 500 359 458 338 469 b 518 552 338 548 367 552 b 713 504 675 552 699 545 l 974 504 b 570 719 971 670 911 719 l 387 719 b 69 516 208 719 69 693 b 385 266 69 322 141 268 l 630 266 b 743 208 722 266 743 250 b 588 155 743 165 711 155 l 495 155 b 333 220 347 155 333 181 l 63 220 "},"B":{"x_min":102.078125,"x_max":1365.203125,"ha":1475,"o":"m 102 0 l 1064 0 b 1365 266 1237 0 1365 45 b 1184 506 1365 418 1316 490 l 1184 511 b 1329 741 1268 536 1329 569 b 971 1005 1329 938 1212 1005 l 102 1005 l 102 0 m 404 398 l 945 398 b 1054 315 1011 398 1054 383 b 945 241 1054 256 1011 241 l 404 241 l 404 398 m 404 763 l 939 763 b 1027 684 994 763 1027 743 b 939 606 1027 627 994 606 l 404 606 l 404 763 "},"…":{"x_min":84.390625,"x_max":1276.71875,"ha":1389,"o":"m 84 0 l 370 0 l 370 283 l 84 283 l 84 0 m 537 0 l 823 0 l 823 283 l 537 283 l 537 0 m 990 0 l 1276 0 l 1276 283 l 990 283 l 990 0 "},"?":{"x_min":53.078125,"x_max":1034.453125,"ha":1132,"o":"m 53 651 l 306 651 l 306 693 b 435 816 306 766 338 816 l 645 816 b 781 719 752 816 781 794 b 582 615 781 650 745 641 b 360 401 405 586 360 544 l 360 345 l 622 345 b 792 438 622 395 638 416 b 1034 695 954 461 1034 484 l 1034 769 b 668 1016 1034 980 880 1016 l 436 1016 b 53 751 140 1016 53 941 l 53 651 m 352 0 l 638 0 l 638 266 l 352 266 l 352 0 "},"H":{"x_min":102.078125,"x_max":1343.421875,"ha":1475,"o":"m 102 0 l 404 0 l 404 380 l 1041 380 l 1041 0 l 1343 0 l 1343 1005 l 1041 1005 l 1041 647 l 404 647 l 404 1005 l 102 1005 l 102 0 "},"î":{"x_min":-106.171875,"x_max":577.109375,"ha":481,"o":"m 104 0 l 366 0 l 366 707 l 104 707 l 104 0 m -106 826 l 123 826 l 234 976 l 343 826 l 577 826 l 371 1101 l 96 1101 l -106 826 "},"c":{"x_min":57.171875,"x_max":984.078125,"ha":1063,"o":"m 57 325 b 412 -11 57 22 239 -11 l 679 -11 b 984 233 828 -11 984 43 l 984 295 l 730 295 l 730 279 b 590 197 730 213 664 197 l 457 197 b 318 316 375 197 318 225 l 318 411 b 479 519 318 488 370 519 l 579 519 b 730 420 694 519 730 493 l 984 420 l 984 484 b 672 719 984 647 865 719 l 378 719 b 57 393 187 719 57 661 l 57 325 "},"¶":{"x_min":21.78125,"x_max":789.453125,"ha":861,"o":"m 325 0 l 513 0 l 513 863 l 601 863 l 601 0 l 789 0 l 789 1005 l 356 1005 b 21 758 167 1005 21 958 b 325 520 21 609 127 520 l 325 0 "},"−":{"x_min":63.96875,"x_max":752.703125,"ha":833,"o":"m 63 255 l 752 255 l 752 447 l 63 447 l 63 255 "},"≠":{"x_min":76.0625,"x_max":843.9375,"ha":940,"o":"m 684 754 l 574 806 l 494 631 l 76 631 l 76 495 l 434 495 l 348 308 l 76 308 l 76 172 l 288 172 l 229 45 l 338 -7 l 420 172 l 843 172 l 843 308 l 481 308 l 568 495 l 843 495 l 843 631 l 628 631 l 684 754 "},"•":{"x_min":93.921875,"x_max":586.640625,"ha":694,"o":"m 93 502 b 340 251 93 363 204 251 b 586 502 476 251 586 363 b 340 754 586 641 476 754 b 93 502 204 754 93 641 "},"¥":{"x_min":16.328125,"x_max":1328.453125,"ha":1372,"o":"m 232 143 l 533 143 l 533 0 l 811 0 l 811 143 l 1112 143 l 1112 310 l 811 310 l 811 353 l 833 381 l 1112 381 l 1112 547 l 965 547 l 1328 1006 l 1018 1006 l 672 539 l 326 1006 l 16 1006 l 379 547 l 232 547 l 232 381 l 511 381 l 533 353 l 533 310 l 232 310 l 232 143 "},"(":{"x_min":123.859375,"x_max":590.71875,"ha":686,"o":"m 123 290 b 416 -11 123 62 234 -11 l 590 -11 l 590 213 l 492 213 b 385 318 421 213 385 237 l 385 687 b 492 791 385 768 421 791 l 590 791 l 590 1016 l 416 1016 b 123 715 234 1016 123 943 l 123 290 "},"U":{"x_min":102.078125,"x_max":1343.421875,"ha":1475,"o":"m 102 358 b 506 -11 102 108 228 -11 l 939 -11 b 1343 358 1216 -11 1343 108 l 1343 1005 l 1041 1005 l 1041 425 b 872 247 1041 297 996 247 l 573 247 b 404 425 449 247 404 297 l 404 1005 l 102 1005 l 102 358 "},"◊":{"x_min":72,"x_max":962,"ha":1057,"o":"m 962 491 l 610 1054 l 420 1054 l 72 491 l 420 -68 l 610 -68 l 962 491 m 744 487 l 548 154 b 521 102 538 138 527 115 l 517 102 b 489 154 512 115 500 136 l 288 495 l 482 829 b 511 881 492 845 504 868 l 514 881 b 542 829 519 868 533 844 l 744 487 "},"Ñ":{"x_min":102.078125,"x_max":1442.78125,"ha":1576,"o":"m 102 0 l 404 0 l 404 730 l 406 730 l 974 0 l 1442 0 l 1442 1005 l 1140 1005 l 1140 275 l 1137 275 l 570 1005 l 102 1005 l 102 0 m 558 1088 b 642 1170 563 1134 597 1170 b 901 1104 702 1170 796 1104 b 1117 1338 1041 1104 1101 1212 l 988 1338 b 909 1262 982 1300 950 1262 b 790 1301 882 1262 838 1281 b 647 1338 743 1319 691 1338 b 428 1088 521 1338 442 1202 l 558 1088 "},"F":{"x_min":102.078125,"x_max":1131.078125,"ha":1236,"o":"m 102 0 l 404 0 l 404 343 l 1097 343 l 1097 576 l 404 576 l 404 763 l 1131 763 l 1131 1005 l 102 1005 l 102 0 "},"­":{"x_min":111.609375,"x_max":492.71875,"ha":617,"o":"m 111 226 l 492 226 l 492 476 l 111 476 l 111 226 "},":":{"x_min":193.28125,"x_max":479.109375,"ha":686,"o":"m 193 425 l 479 425 l 479 708 l 193 708 l 193 425 m 193 0 l 479 0 l 479 283 l 193 283 l 193 0 "},"Û":{"x_min":101.84375,"x_max":1343.15625,"ha":1475,"o":"m 101 358 b 506 -11 101 108 228 -11 l 938 -11 b 1343 358 1216 -11 1343 108 l 1343 1005 l 1040 1005 l 1040 424 b 872 246 1040 296 996 246 l 572 246 b 404 424 448 246 404 296 l 404 1005 l 101 1005 l 101 358 m 380 1083 l 610 1083 l 721 1233 l 830 1083 l 1064 1083 l 858 1358 l 583 1358 l 380 1083 "},"*":{"x_min":114.09375,"x_max":693.90625,"ha":825,"o":"m 314 447 l 401 618 l 307 672 l 205 511 l 314 447 m 602 511 l 500 672 l 406 618 l 493 447 l 602 511 m 493 1017 l 406 846 l 500 792 l 602 953 l 493 1017 m 693 794 l 506 786 l 506 678 l 693 669 l 693 794 m 114 669 l 301 678 l 301 786 l 114 794 l 114 669 m 205 953 l 307 792 l 401 846 l 314 1017 l 205 953 "},"†":{"x_min":93.921875,"x_max":916.03125,"ha":1031,"o":"m 394 0 l 615 0 l 615 558 l 916 558 l 916 758 l 615 758 l 615 1005 l 394 1005 l 394 758 l 93 758 l 93 558 l 394 558 l 394 0 "},"∕":{"x_min":-318,"x_max":621,"ha":308,"o":"m -318 -11 l -146 -11 l 621 1016 l 454 1016 l -318 -11 "},"°":{"x_min":49,"x_max":495.4375,"ha":556,"o":"m 179 788 b 272 883 179 841 220 883 b 364 788 323 883 364 841 b 272 694 364 736 323 694 b 179 788 220 694 179 736 m 49 788 b 272 561 49 662 148 561 b 495 788 396 561 495 662 b 272 1016 495 915 396 1016 b 49 788 148 1016 49 915 "},"V":{"x_min":7.109375,"x_max":1439,"ha":1475,"o":"m 536 0 l 909 0 l 1439 1005 l 1108 1005 l 723 258 l 337 1005 l 7 1005 l 536 0 "},"å":{"x_min":46.28125,"x_max":963.671875,"ha":1063,"o":"m 46 190 b 307 -10 46 23 148 -12 l 485 -10 b 715 80 616 -10 643 4 l 715 0 l 963 0 l 963 465 b 688 719 963 632 868 719 l 385 719 b 72 496 164 719 72 687 l 325 496 b 426 553 328 546 349 553 l 579 553 b 702 458 681 553 702 528 l 702 396 b 430 453 651 448 573 453 b 46 248 176 453 46 441 l 46 190 m 436 155 b 299 219 334 155 299 173 b 432 303 299 278 322 303 l 548 303 b 707 230 692 303 707 283 b 511 155 707 183 691 155 l 436 155 m 328 1023 b 521 826 328 915 415 826 b 714 1023 627 826 714 915 b 521 1221 714 1132 627 1221 b 328 1023 415 1221 328 1132 m 434 1023 b 521 1112 434 1072 473 1112 b 608 1023 568 1112 608 1072 b 521 934 608 975 568 934 b 434 1023 473 934 434 975 "}," ":{"x_min":0,"x_max":0,"ha":686},"0":{"x_min":63.96875,"x_max":1280.8125,"ha":1372,"o":"m 357 611 b 532 766 357 715 390 766 l 812 766 b 986 611 954 766 986 715 l 986 394 b 812 238 986 290 954 238 l 532 238 b 357 394 390 238 357 290 l 357 611 m 63 341 b 416 -11 63 80 181 -11 l 928 -11 b 1280 341 1163 -11 1280 80 l 1280 622 b 849 1016 1280 927 1171 1016 l 495 1016 b 63 622 172 1016 63 927 l 63 341 "},"”":{"x_min":87.109375,"x_max":820.75,"ha":926,"o":"m 87 450 l 153 450 b 413 677 368 450 413 518 l 413 1005 l 136 1005 l 136 738 l 206 738 l 206 679 b 134 608 206 631 181 608 l 87 608 l 87 450 m 494 450 l 560 450 b 820 677 775 450 820 518 l 820 1005 l 543 1005 l 543 738 l 613 738 l 613 679 b 541 608 613 631 588 608 l 494 608 l 494 450 "},"¾":{"x_min":99.359375,"x_max":1885.140625,"ha":2056,"o":"m 568 -11 l 740 -11 l 1508 1016 l 1342 1016 l 568 -11 m 99 554 b 308 395 99 426 194 395 l 631 395 b 853 562 809 395 853 443 b 733 705 853 658 837 690 l 733 708 b 839 848 820 733 839 747 b 558 1016 839 983 785 1016 l 428 1016 b 103 836 187 1016 103 1000 l 103 802 l 315 802 b 398 866 315 854 334 866 l 539 866 b 627 813 597 866 627 854 b 552 776 627 790 616 776 l 398 776 l 398 634 l 570 634 b 641 594 630 634 641 616 b 573 545 641 561 634 545 l 397 545 b 311 618 334 545 311 548 l 99 618 l 99 554 m 1106 107 l 1578 107 l 1578 0 l 1791 0 l 1791 107 l 1885 107 l 1885 265 l 1791 265 l 1791 598 l 1565 598 l 1106 336 l 1106 107 m 1578 432 l 1578 265 l 1286 265 l 1286 268 l 1578 432 "},"@":{"x_min":40.703125,"x_max":1047.9375,"ha":1111,"o":"m 431 468 b 560 600 431 536 487 600 b 651 491 620 600 651 555 b 521 369 651 436 606 369 b 431 468 465 369 431 419 m 700 691 b 536 775 660 751 604 775 b 251 448 370 775 251 630 b 480 190 251 311 338 190 b 616 261 548 190 591 220 l 619 261 b 695 190 624 213 651 190 b 1047 606 774 190 1047 287 b 570 1016 1047 838 866 1016 b 40 501 273 1016 40 830 b 560 -11 40 201 265 -11 b 989 211 753 -11 892 62 l 835 211 b 560 130 767 161 691 130 b 187 501 360 130 187 273 b 568 875 187 713 348 875 b 909 562 759 875 909 777 b 794 344 909 408 841 344 b 774 375 778 344 774 358 b 781 422 774 391 778 406 l 842 750 l 714 750 l 700 691 "},"ö":{"x_min":72.140625,"x_max":1037.171875,"ha":1132,"o":"m 72 269 b 359 -11 72 36 225 -11 l 749 -11 b 1037 269 883 -11 1037 36 l 1037 438 b 749 719 1037 672 883 719 l 359 719 b 72 438 225 719 72 672 l 72 269 m 333 387 b 511 519 333 488 392 519 l 574 519 b 775 402 743 519 775 497 l 775 305 b 574 188 775 211 743 188 l 511 188 b 333 320 392 188 333 219 l 333 387 m 239 845 l 500 845 l 500 1054 l 239 1054 l 239 845 m 609 845 l 871 845 l 871 1054 l 609 1054 l 609 845 "},"i":{"x_min":104.8125,"x_max":366.140625,"ha":481,"o":"m 366 708 l 104 708 l 104 0 l 366 0 l 366 708 m 366 1005 l 104 1005 l 104 797 l 366 797 l 366 1005 "},"≤":{"x_min":76.21875,"x_max":843.890625,"ha":940,"o":"m 842 186 l 842 334 l 227 586 l 227 588 l 841 838 l 841 987 l 78 659 l 78 513 l 842 186 m 843 -5 l 843 133 l 76 133 l 76 -5 l 843 -5 "},"Õ":{"x_min":80.3125,"x_max":1433.25,"ha":1544,"o":"m 80 352 b 514 -11 80 58 242 -11 l 999 -11 b 1433 352 1271 -11 1433 58 l 1433 652 b 999 1016 1433 947 1271 1016 l 514 1016 b 80 652 242 1016 80 947 l 80 352 m 390 556 b 579 758 390 681 420 758 l 933 758 b 1122 556 1092 758 1122 681 l 1122 448 b 950 247 1122 302 1092 247 l 563 247 b 390 448 420 247 390 302 l 390 556 m 541 1088 b 626 1170 547 1134 581 1170 b 884 1104 686 1170 779 1104 b 1101 1338 1024 1104 1084 1212 l 971 1338 b 892 1262 966 1300 933 1262 b 774 1301 865 1262 822 1281 b 631 1338 726 1319 675 1338 b 412 1088 504 1338 426 1202 l 541 1088 "},"þ":{"x_min":89.828125,"x_max":1037.171875,"ha":1132,"o":"m 351 388 b 509 519 351 495 405 519 l 646 519 b 784 395 771 519 784 475 l 784 312 b 646 188 784 233 771 188 l 509 188 b 351 319 405 188 351 212 l 351 388 m 89 -247 l 351 -247 l 351 122 l 353 122 b 612 -11 412 9 464 -11 l 665 -11 b 1037 290 996 -11 1037 109 l 1037 418 b 665 719 1037 598 996 719 l 588 719 b 353 577 480 719 370 688 l 351 577 l 351 1005 l 89 1005 l 89 -247 "},"]":{"x_min":81.671875,"x_max":548.53125,"ha":686,"o":"m 81 0 l 548 0 l 548 1005 l 81 1005 l 81 772 l 287 772 l 287 233 l 81 233 l 81 0 "},"m":{"x_min":77.578125,"x_max":1569.359375,"ha":1681,"o":"m 77 0 l 338 0 l 338 373 b 503 510 338 483 392 510 b 692 401 661 510 692 488 l 692 0 l 954 0 l 954 390 b 1131 510 954 483 1005 510 b 1308 380 1283 510 1308 477 l 1308 0 l 1569 0 l 1569 398 b 1245 719 1569 601 1483 719 l 1165 719 b 917 553 1016 719 960 681 b 660 719 868 665 784 719 l 560 719 b 329 569 432 719 343 670 l 326 569 l 326 708 l 77 708 l 77 0 "},"8":{"x_min":91.1875,"x_max":1253.578125,"ha":1372,"o":"m 91 231 b 396 -11 91 70 183 -11 l 965 -11 b 1253 216 1148 -11 1253 48 l 1253 297 b 1080 511 1253 434 1182 481 l 1080 513 b 1245 712 1219 531 1245 604 l 1245 777 b 879 1016 1245 968 1131 1016 l 579 1016 b 96 776 191 1016 96 1001 l 96 719 b 266 508 96 576 179 523 l 266 505 b 91 319 134 486 91 427 l 91 231 m 494 205 b 377 306 392 205 377 236 b 510 406 377 384 390 406 l 834 406 b 967 306 954 406 967 384 b 850 205 967 236 952 205 l 494 205 m 498 615 b 382 708 409 615 382 651 b 475 800 382 777 423 800 l 867 800 b 959 708 918 800 959 777 b 843 615 959 651 932 615 l 498 615 "},"ž":{"x_min":34.9375,"x_max":838,"ha":892,"o":"m 34 0 l 838 0 l 838 182 l 420 182 l 420 185 l 818 499 l 818 707 l 56 707 l 56 524 l 456 524 l 456 521 l 34 180 l 34 0 m 299 826 l 573 826 l 778 1101 l 546 1101 l 436 953 l 326 1101 l 94 1101 l 299 826 "},"R":{"x_min":102.078125,"x_max":1309.390625,"ha":1440,"o":"m 404 755 l 876 755 b 1015 650 971 755 1015 738 l 1015 616 b 903 511 1015 544 985 511 l 404 511 l 404 755 m 102 0 l 404 0 l 404 261 l 879 261 b 1003 120 973 261 1003 226 l 1003 0 l 1305 0 l 1305 170 b 1140 393 1305 336 1230 376 l 1140 395 b 1309 643 1279 429 1309 508 l 1309 706 b 1014 1005 1309 887 1246 1005 l 102 1005 l 102 0 "},"á":{"x_min":45.75,"x_max":963.140625,"ha":1063,"o":"m 45 190 b 307 -10 45 23 147 -12 l 485 -10 b 715 80 616 -10 643 4 l 715 0 l 963 0 l 963 465 b 688 719 963 632 867 719 l 384 719 b 71 496 164 719 71 687 l 324 496 b 425 553 327 546 349 553 l 579 553 b 701 458 681 553 701 528 l 701 396 b 429 453 651 448 572 453 b 45 248 176 453 45 441 l 45 190 m 436 155 b 298 219 334 155 298 173 b 432 303 298 278 322 303 l 548 303 b 707 230 692 303 707 283 b 511 155 707 183 690 155 l 436 155 m 352 826 l 568 826 l 856 1101 l 526 1101 l 352 826 "},"×":{"x_min":79,"x_max":738,"ha":833,"o":"m 206 15 l 408 221 l 610 15 l 738 145 l 535 351 l 738 556 l 610 687 l 408 480 l 206 687 l 79 556 l 281 351 l 79 145 l 206 15 "},"o":{"x_min":72.140625,"x_max":1037.171875,"ha":1132,"o":"m 72 269 b 359 -11 72 36 225 -11 l 749 -11 b 1037 269 883 -11 1037 36 l 1037 438 b 749 719 1037 672 883 719 l 359 719 b 72 438 225 719 72 672 l 72 269 m 333 387 b 511 519 333 488 392 519 l 574 519 b 775 402 743 519 775 497 l 775 305 b 574 188 775 211 743 188 l 511 188 b 333 320 392 188 333 219 l 333 387 "},"5":{"x_min":95.28125,"x_max":1249.5,"ha":1372,"o":"m 127 401 l 389 401 b 477 467 398 446 431 467 l 796 467 b 971 341 935 467 971 455 b 818 205 971 244 956 205 l 534 205 b 372 313 396 205 372 228 l 95 313 l 95 255 b 539 -11 95 19 240 -11 l 775 -11 b 1249 320 1095 -11 1249 14 l 1249 384 b 918 676 1249 606 1128 676 l 577 676 b 389 613 468 676 427 652 l 389 788 l 1201 788 l 1201 1005 l 127 1005 l 127 401 "},"õ":{"x_min":72.140625,"x_max":1037.171875,"ha":1132,"o":"m 72 269 b 359 -11 72 36 225 -11 l 749 -11 b 1037 269 883 -11 1037 36 l 1037 438 b 749 719 1037 672 883 719 l 359 719 b 72 438 225 719 72 672 l 72 269 m 333 387 b 511 519 333 488 392 519 l 574 519 b 775 402 743 519 775 497 l 775 305 b 574 188 775 211 743 188 l 511 188 b 333 320 392 188 333 219 l 333 387 m 340 831 b 424 913 345 877 379 913 b 683 847 484 913 578 847 b 899 1081 823 847 883 955 l 770 1081 b 691 1005 764 1043 732 1005 b 573 1044 664 1005 620 1025 b 430 1081 525 1062 473 1081 b 210 831 303 1081 224 945 l 340 831 "},"7":{"x_min":108.046875,"x_max":1237.90625,"ha":1372,"o":"m 108 755 l 870 755 l 259 0 l 610 0 l 1237 780 l 1237 1005 l 108 1005 l 108 755 "},"K":{"x_min":102.078125,"x_max":1400.578125,"ha":1440,"o":"m 102 0 l 404 0 l 404 386 l 537 386 l 973 0 l 1400 0 l 804 513 l 1337 1005 l 926 1005 l 545 636 l 404 636 l 404 1005 l 102 1005 l 102 0 "},",":{"x_min":151.078125,"x_max":479.109375,"ha":686,"o":"m 151 -247 b 479 31 434 -250 479 -215 l 479 283 l 193 283 l 193 0 l 269 0 l 269 -23 b 151 -88 269 -69 253 -88 l 151 -247 "},"d":{"x_min":72.140625,"x_max":1019.46875,"ha":1132,"o":"m 325 395 b 462 519 325 475 337 519 l 616 519 b 774 388 720 519 774 495 l 774 319 b 616 188 774 212 720 188 l 462 188 b 325 312 337 188 325 233 l 325 395 m 72 290 b 443 -11 72 109 112 -11 l 519 -11 b 771 130 677 -11 743 43 l 774 130 l 774 0 l 1019 0 l 1019 1005 l 758 1005 l 758 577 l 755 577 b 521 719 739 688 628 719 l 443 719 b 72 418 112 719 72 598 l 72 290 "},"¨":{"x_min":-80.3125,"x_max":551.25,"ha":481,"o":"m -80 845 l 181 845 l 181 1054 l -80 1054 l -80 845 m 289 845 l 551 845 l 551 1054 l 289 1054 l 289 845 "},"Ô":{"x_min":80.3125,"x_max":1433.25,"ha":1544,"o":"m 80 352 b 514 -11 80 57 242 -11 l 999 -11 b 1433 352 1271 -11 1433 57 l 1433 652 b 999 1016 1433 946 1271 1016 l 514 1016 b 80 652 242 1016 80 946 l 80 352 m 390 556 b 579 758 390 681 420 758 l 933 758 b 1122 556 1092 758 1122 681 l 1122 448 b 950 246 1122 302 1092 246 l 563 246 b 390 448 420 246 390 302 l 390 556 m 415 1083 l 645 1083 l 755 1233 l 864 1083 l 1098 1083 l 892 1358 l 617 1358 l 415 1083 "},"E":{"x_min":102.078125,"x_max":1197.78125,"ha":1304,"o":"m 102 0 l 1197 0 l 1197 241 l 404 241 l 404 402 l 1139 402 l 1139 611 l 404 611 l 404 772 l 1180 772 l 1180 1005 l 102 1005 l 102 0 "},"Y":{"x_min":9.53125,"x_max":1403.3125,"ha":1442,"o":"m 555 0 l 857 0 l 857 350 l 1403 1005 l 1038 1005 l 706 594 l 374 1005 l 9 1005 l 555 350 l 555 0 "},"\"":{"x_min":182.390625,"x_max":725.46875,"ha":926,"o":"m 518 450 l 725 450 l 725 1005 l 518 1005 l 518 450 m 182 450 l 389 450 l 389 1005 l 182 1005 l 182 450 "},"‹":{"x_min":4.15625,"x_max":399,"ha":411,"o":"m 168 106 l 399 106 l 235 350 l 399 595 l 168 595 l 4 350 l 168 106 "},"˙":{"x_min":104.8125,"x_max":366.140625,"ha":481,"o":"m 104 845 l 366 845 l 366 1054 l 104 1054 l 104 845 "},"ê":{"x_min":56.859375,"x_max":953.078125,"ha":1031,"o":"m 56 324 b 412 -11 56 21 239 -11 l 608 -11 b 953 205 797 -11 953 27 l 953 235 l 707 235 b 559 155 707 194 701 155 l 479 155 b 318 251 370 155 318 176 l 318 294 l 953 294 l 953 413 b 560 719 953 659 838 719 l 378 719 b 56 392 187 719 56 660 l 56 324 m 318 452 b 509 552 318 537 338 552 b 699 452 661 552 699 537 l 318 452 m 163 826 l 393 826 l 503 976 l 612 826 l 846 826 l 641 1101 l 366 1101 l 163 826 "},"Ï":{"x_min":-46.28125,"x_max":585.28125,"ha":550,"o":"m 118 0 l 420 0 l 420 1005 l 118 1005 l 118 0 m -46 1102 l 215 1102 l 215 1311 l -46 1311 l -46 1102 m 323 1102 l 585 1102 l 585 1311 l 323 1311 l 323 1102 "},"„":{"x_min":87.109375,"x_max":820.75,"ha":926,"o":"m 87 -288 l 153 -288 b 413 -61 368 -288 413 -220 l 413 266 l 136 266 l 136 0 l 206 0 l 206 -59 b 134 -130 206 -106 181 -130 l 87 -130 l 87 -288 m 494 -288 l 560 -288 b 820 -61 775 -288 820 -220 l 820 266 l 543 266 l 543 0 l 613 0 l 613 -59 b 541 -130 613 -106 588 -130 l 494 -130 l 494 -288 "},"Â":{"x_min":5,"x_max":1474,"ha":1510,"o":"m 5 0 l 342 0 l 431 177 l 1043 177 l 1137 0 l 1474 0 l 932 1005 l 538 1005 l 5 0 m 734 772 l 930 394 l 544 394 l 734 772 m 398 1083 l 628 1083 l 738 1233 l 847 1083 l 1081 1083 l 876 1358 l 601 1358 l 398 1083 "},"Í":{"x_min":100.71875,"x_max":605.703125,"ha":550,"o":"m 118 0 l 420 0 l 420 1005 l 118 1005 l 118 0 m 100 1083 l 317 1083 l 605 1358 l 274 1358 l 100 1083 "},"´":{"x_min":67,"x_max":572,"ha":481,"o":"m 67 826 l 283 826 l 572 1101 l 241 1101 l 67 826 "},"ì":{"x_min":-100.71875,"x_max":404.25,"ha":481,"o":"m 104 0 l 366 0 l 366 708 l 104 708 l 104 0 m 187 826 l 404 826 l 230 1101 l -100 1101 l 187 826 "},"±":{"x_min":63.96875,"x_max":752.703125,"ha":833,"o":"m 63 368 l 314 368 l 314 225 l 502 225 l 502 368 l 752 368 l 752 559 l 502 559 l 502 702 l 314 702 l 314 559 l 63 559 l 63 368 m 63 0 l 752 0 l 752 191 l 63 191 l 63 0 "},"Ú":{"x_min":101.828125,"x_max":1343.15625,"ha":1475,"o":"m 101 358 b 506 -11 101 108 228 -11 l 938 -11 b 1343 358 1216 -11 1343 108 l 1343 1005 l 1041 1005 l 1041 425 b 872 247 1041 297 996 247 l 572 247 b 403 425 448 247 403 297 l 403 1005 l 101 1005 l 101 358 m 553 1083 l 770 1083 l 1058 1358 l 727 1358 l 553 1083 "},"|":{"x_min":57.171875,"x_max":245,"ha":308,"o":"m 57 1041 l 57 -347 l 245 -347 l 245 1041 l 57 1041 "},"§":{"x_min":110.25,"x_max":999.0625,"ha":1132,"o":"m 370 479 b 289 561 326 491 289 508 b 332 626 289 590 308 626 b 364 619 338 626 352 620 l 759 545 b 827 483 800 538 827 523 b 763 408 827 444 808 408 b 684 418 744 408 711 413 l 370 479 m 140 208 l 140 177 b 351 -12 140 26 225 -12 l 735 -12 b 963 193 929 -12 963 79 b 852 380 963 301 910 355 l 852 383 b 999 534 940 387 999 431 b 785 720 999 637 950 697 l 457 770 b 363 830 392 781 363 801 b 428 881 363 869 383 881 l 653 881 b 724 823 709 881 724 869 l 928 823 l 928 850 b 721 1015 928 959 860 1015 l 364 1015 b 151 818 230 1015 151 963 b 251 654 151 736 181 687 l 251 651 b 110 495 166 640 110 604 b 258 326 110 395 179 341 l 662 250 b 751 183 728 236 751 229 b 671 120 751 138 713 120 l 461 120 b 352 172 402 120 352 131 l 352 208 l 140 208 "},"Ý":{"x_min":9.53125,"x_max":1403.3125,"ha":1442,"o":"m 555 0 l 857 0 l 857 350 l 1403 1005 l 1038 1005 l 706 594 l 374 1005 l 9 1005 l 555 350 l 555 0 m 537 1083 l 754 1083 l 1042 1358 l 711 1358 l 537 1083 "},"b":{"x_min":89.828125,"x_max":1037.171875,"ha":1132,"o":"m 334 388 b 492 519 334 495 389 519 l 646 519 b 784 395 771 519 784 475 l 784 312 b 646 188 784 233 771 188 l 492 188 b 334 319 389 188 334 212 l 334 388 m 89 0 l 334 0 l 334 130 l 337 130 b 589 -11 366 43 431 -11 l 665 -11 b 1037 290 996 -11 1037 109 l 1037 418 b 665 719 1037 598 996 719 l 588 719 b 353 577 480 719 370 688 l 351 577 l 351 1005 l 89 1005 l 89 0 "},"q":{"x_min":72.140625,"x_max":1019.46875,"ha":1132,"o":"m 325 395 b 462 519 325 475 337 519 l 600 519 b 758 388 703 519 758 495 l 758 319 b 600 188 758 212 703 188 l 462 188 b 325 312 337 188 325 233 l 325 395 m 72 290 b 443 -11 72 109 112 -11 l 496 -11 b 755 122 645 -11 696 9 l 758 122 l 758 -247 l 1019 -247 l 1019 708 l 766 708 l 766 602 l 763 602 b 518 719 730 665 671 719 l 443 719 b 72 418 112 719 72 598 l 72 290 "},"Ω":{"x_min":66.6875,"x_max":1237.25,"ha":1332,"o":"m 307 188 l 66 188 l 66 0 l 590 0 l 590 147 b 353 508 451 213 353 345 b 657 820 353 698 487 820 b 954 512 838 820 954 676 b 717 147 954 329 853 229 l 717 0 l 1237 0 l 1237 188 l 990 188 l 990 193 b 1218 556 1113 269 1218 375 b 654 1005 1218 806 1001 1005 b 87 559 308 1005 87 808 b 307 193 87 373 205 252 l 307 188 "},"Ö":{"x_min":80.3125,"x_max":1433.25,"ha":1544,"o":"m 80 352 b 514 -11 80 58 242 -11 l 999 -11 b 1433 352 1271 -11 1433 58 l 1433 652 b 999 1016 1433 947 1271 1016 l 514 1016 b 80 652 242 1016 80 947 l 80 352 m 390 556 b 579 758 390 681 420 758 l 933 758 b 1122 556 1092 758 1122 681 l 1122 448 b 950 247 1122 302 1092 247 l 563 247 b 390 448 420 247 390 302 l 390 556 m 441 1102 l 702 1102 l 702 1311 l 441 1311 l 441 1102 m 811 1102 l 1072 1102 l 1072 1311 l 811 1311 l 811 1102 "},"ﬂ":{"x_min":21.78125,"x_max":1019.46875,"ha":1132,"o":"m 758 0 l 1019 0 l 1019 1005 l 758 1005 l 758 0 m 141 0 l 402 0 l 402 525 l 650 525 l 650 708 l 402 708 l 402 741 b 532 833 402 813 427 833 b 638 829 563 833 601 830 l 638 1009 b 461 1016 585 1011 532 1016 b 141 762 240 1016 141 956 l 141 708 l 21 708 l 21 525 l 141 525 l 141 0 "},"z":{"x_min":35.390625,"x_max":838.453125,"ha":892,"o":"m 35 0 l 838 0 l 838 183 l 420 183 l 420 186 l 819 500 l 819 708 l 57 708 l 57 525 l 457 525 l 457 522 l 35 180 l 35 0 "},"™":{"x_min":43.5625,"x_max":1317.5625,"ha":1389,"o":"m 43 880 l 183 880 l 183 433 l 371 433 l 371 880 l 511 880 l 511 1005 l 43 1005 l 43 880 m 628 433 l 800 433 l 800 747 l 803 747 l 902 433 l 1043 433 l 1143 747 l 1146 747 l 1146 433 l 1317 433 l 1317 1005 l 1083 1005 l 974 675 l 971 675 l 862 1005 l 628 1005 l 628 433 "},"ã":{"x_min":45.734375,"x_max":963.125,"ha":1063,"o":"m 45 190 b 307 -10 45 23 147 -12 l 485 -10 b 715 80 616 -10 643 4 l 715 0 l 963 0 l 963 465 b 688 719 963 632 867 719 l 384 719 b 71 496 164 719 71 687 l 324 496 b 425 553 327 546 349 553 l 579 553 b 701 458 681 553 701 528 l 701 396 b 429 453 651 448 572 453 b 45 248 176 453 45 441 l 45 190 m 436 155 b 298 219 334 155 298 173 b 432 303 298 278 322 303 l 547 303 b 707 230 692 303 707 283 b 511 155 707 183 690 155 l 436 155 m 305 832 b 390 914 311 878 345 914 b 648 847 449 914 543 847 b 865 1082 788 847 848 955 l 735 1082 b 656 1005 730 1043 697 1005 b 538 1044 629 1005 586 1025 b 395 1082 490 1062 439 1082 b 176 832 268 1082 190 946 l 305 832 "},"æ":{"x_min":46.28125,"x_max":1589.78125,"ha":1681,"o":"m 956 452 b 1147 552 956 536 977 552 b 1336 452 1298 552 1336 536 l 956 452 m 46 190 b 307 -10 46 23 148 -12 l 485 -10 b 820 90 700 -10 777 -2 b 1087 -10 875 -3 954 -10 l 1245 -10 b 1589 205 1434 -10 1589 28 l 1589 235 l 1344 235 b 1196 155 1344 194 1337 155 l 1116 155 b 955 251 1007 155 955 176 l 955 294 l 1589 294 l 1589 413 b 1197 718 1589 684 1437 718 l 1056 718 b 828 604 907 718 847 668 l 826 604 b 605 718 803 677 736 718 l 385 718 b 72 495 164 718 72 686 l 325 495 b 426 552 328 545 349 552 l 579 552 b 702 457 681 552 702 527 l 702 395 b 430 452 651 447 573 452 b 46 248 176 452 46 441 l 46 190 m 436 155 b 299 219 334 155 299 173 b 432 302 299 277 322 302 l 548 302 b 707 230 692 302 707 283 b 511 155 707 183 691 155 l 436 155 "},"®":{"x_min":41.125,"x_max":1048.34375,"ha":1111,"o":"m 343 231 l 465 231 l 465 441 l 514 441 l 618 231 l 750 231 l 634 450 b 767 593 710 454 767 491 b 543 759 767 722 689 759 l 343 759 l 343 231 m 465 659 l 537 659 b 637 606 577 659 637 656 b 565 541 637 554 611 541 l 465 541 l 465 659 m 544 138 b 204 502 348 138 204 280 b 544 866 204 725 348 866 b 885 502 740 866 885 725 b 544 138 885 280 740 138 m 41 502 b 544 -11 41 219 267 -11 b 1048 502 822 -11 1048 219 b 544 1016 1048 786 822 1016 b 41 502 267 1016 41 786 "},"É":{"x_min":102.078125,"x_max":1197.78125,"ha":1304,"o":"m 102 0 l 1197 0 l 1197 241 l 404 241 l 404 402 l 1139 402 l 1139 611 l 404 611 l 404 772 l 1180 772 l 1180 1005 l 102 1005 l 102 0 m 470 1083 l 687 1083 l 975 1358 l 645 1358 l 470 1083 "},"~":{"x_min":94.171875,"x_max":723,"ha":833,"o":"m 143 201 b 258 302 164 250 197 301 b 552 208 384 302 446 208 b 723 327 637 208 682 269 l 674 501 b 554 400 642 452 608 401 b 264 494 484 400 365 494 b 94 375 173 494 124 433 l 143 201 "},"³":{"x_min":59.890625,"x_max":813.953125,"ha":892,"o":"m 59 554 b 269 395 59 426 155 395 l 592 395 b 813 562 770 395 813 443 b 694 705 813 658 797 690 l 694 708 b 800 848 781 733 800 747 b 518 1016 800 983 745 1016 l 389 1016 b 63 836 148 1016 63 1000 l 63 802 l 276 802 b 359 866 276 854 295 866 l 499 866 b 588 813 558 866 588 854 b 513 776 588 790 577 776 l 359 776 l 359 634 l 530 634 b 601 594 590 634 601 616 b 533 545 601 561 594 545 l 357 545 b 272 618 295 545 272 548 l 59 618 l 59 554 "},"¡":{"x_min":193.28125,"x_max":479.109375,"ha":686,"o":"m 193 486 l 479 486 l 479 769 l 193 769 l 193 486 m 197 -236 l 475 -236 l 475 2 l 462 368 l 209 368 l 197 2 l 197 -236 "},"[":{"x_min":123.859375,"x_max":590.71875,"ha":686,"o":"m 123 0 l 590 0 l 590 233 l 385 233 l 385 772 l 590 772 l 590 1005 l 123 1005 l 123 0 "},"L":{"x_min":102.078125,"x_max":1083.453125,"ha":1132,"o":"m 102 0 l 1083 0 l 1083 258 l 404 258 l 404 1005 l 102 1005 l 102 0 "}," ":{"x_min":0,"x_max":0,"ha":686},"∑":{"x_min":29.96875,"x_max":965.015625,"ha":1008,"o":"m 965 -136 l 965 68 l 382 68 l 382 75 l 720 440 l 412 776 l 412 781 l 926 781 l 926 987 l 53 987 l 53 830 l 426 418 l 29 -2 l 29 -136 l 965 -136 "},"%":{"x_min":31.5625,"x_max":1783.421875,"ha":1851,"o":"m 219 751 b 309 850 219 834 241 850 l 505 850 b 595 751 573 850 595 834 l 595 620 b 497 516 595 544 574 516 l 317 516 b 219 620 239 516 219 544 l 219 751 m 676 -11 l 800 -11 l 1132 1016 l 1008 1016 l 676 -11 m 1219 390 b 1309 488 1219 473 1241 488 l 1505 488 b 1595 390 1573 488 1595 473 l 1595 259 b 1497 155 1595 183 1575 155 l 1317 155 b 1219 259 1240 155 1219 183 l 1219 390 m 31 556 b 261 350 31 436 81 350 l 476 350 b 782 619 717 350 782 402 l 782 801 b 554 1016 782 958 710 1016 l 246 1016 b 31 795 117 1016 31 952 l 31 556 m 1032 195 b 1262 -11 1032 75 1082 -11 l 1477 -11 b 1783 258 1718 -11 1783 41 l 1783 440 b 1554 655 1783 597 1711 655 l 1247 655 b 1032 434 1117 655 1032 591 l 1032 195 "},"P":{"x_min":102.078125,"x_max":1282.171875,"ha":1371,"o":"m 102 0 l 404 0 l 404 252 l 1004 252 b 1282 575 1218 252 1282 425 l 1282 661 b 925 1005 1282 858 1212 1005 l 102 1005 l 102 0 m 404 755 l 847 755 b 971 648 939 755 971 716 l 971 609 b 873 502 971 550 944 502 l 404 502 l 404 755 "},"∏":{"x_min":25.859375,"x_max":1212.75,"ha":1267,"o":"m 1212 781 l 1212 987 l 25 987 l 25 781 l 205 781 l 205 -136 l 454 -136 l 454 781 l 784 781 l 784 -136 l 1034 -136 l 1034 781 l 1212 781 "},"À":{"x_min":5,"x_max":1474,"ha":1510,"o":"m 5 0 l 342 0 l 431 177 l 1043 177 l 1137 0 l 1474 0 l 932 1005 l 538 1005 l 5 0 m 734 772 l 930 394 l 544 394 l 734 772 m 692 1083 l 909 1083 l 734 1358 l 403 1358 l 692 1083 "},"_":{"x_min":0,"x_max":680.5625,"ha":694,"o":"m 0 -173 l 680 -173 l 680 -104 l 0 -104 l 0 -173 "},"ñ":{"x_min":89.515625,"x_max":1019.15625,"ha":1132,"o":"m 89 0 l 350 0 l 350 356 b 529 511 350 458 417 511 l 589 511 b 757 406 703 511 757 476 l 757 0 l 1019 0 l 1019 406 b 631 719 1019 712 793 719 b 353 594 491 719 399 693 l 350 594 l 350 708 l 89 708 l 89 0 m 339 831 b 424 913 345 877 379 913 b 682 847 484 913 578 847 b 899 1081 823 847 883 955 l 770 1081 b 691 1005 764 1043 731 1005 b 572 1044 663 1005 620 1025 b 429 1081 525 1062 473 1081 b 210 831 303 1081 224 945 l 339 831 "},"+":{"x_min":63.96875,"x_max":752.703125,"ha":833,"o":"m 314 0 l 502 0 l 502 255 l 752 255 l 752 447 l 502 447 l 502 702 l 314 702 l 314 447 l 63 447 l 63 255 l 314 255 l 314 0 "},"‚":{"x_min":72.140625,"x_max":398.8125,"ha":481,"o":"m 72 -288 l 138 -288 b 398 -61 353 -288 398 -220 l 398 266 l 121 266 l 121 0 l 191 0 l 191 -59 b 119 -130 191 -106 166 -130 l 72 -130 l 72 -288 "},"½":{"x_min":110.6875,"x_max":1844.75,"ha":2056,"o":"m 440 -11 l 611 -11 l 1379 1016 l 1213 1016 l 440 -11 m 436 406 l 640 406 l 640 1005 l 381 1005 l 110 838 l 199 695 l 436 838 l 436 406 m 1093 0 l 1844 0 l 1844 150 l 1300 150 b 1395 201 1300 183 1313 197 l 1598 212 b 1835 431 1799 223 1835 254 b 1602 609 1835 558 1786 609 l 1343 609 b 1093 451 1166 609 1093 569 l 1093 380 l 1305 380 l 1305 384 b 1414 459 1305 447 1331 459 l 1492 459 b 1622 398 1617 459 1622 448 b 1470 348 1622 359 1613 358 l 1271 334 b 1093 204 1145 326 1093 277 l 1093 0 "},"Æ":{"x_min":5.4375,"x_max":1764,"ha":1853,"o":"m 5 0 l 345 0 l 473 202 l 883 202 l 883 0 l 1764 0 l 1764 241 l 1185 241 l 1185 402 l 1743 402 l 1743 611 l 1185 611 l 1185 772 l 1761 772 l 1761 1005 l 645 1005 l 5 0 m 883 402 l 598 402 l 841 788 l 883 788 l 883 402 "},"Ë":{"x_min":102.078125,"x_max":1197.78125,"ha":1304,"o":"m 102 0 l 1197 0 l 1197 241 l 404 241 l 404 402 l 1139 402 l 1139 611 l 404 611 l 404 772 l 1180 772 l 1180 1005 l 102 1005 l 102 0 m 323 1102 l 585 1102 l 585 1311 l 323 1311 l 323 1102 m 694 1102 l 955 1102 l 955 1311 l 694 1311 l 694 1102 "},"'":{"x_min":132.03125,"x_max":338.921875,"ha":481,"o":"m 132 450 l 338 450 l 338 1005 l 132 1005 l 132 450 "},"Š":{"x_min":84.59375,"x_max":1327.296875,"ha":1440,"o":"m 84 259 b 469 -11 84 41 194 -11 l 835 -11 b 1327 303 1237 -11 1327 33 b 748 624 1327 596 1218 626 b 388 713 424 623 388 626 b 502 791 388 767 434 791 l 837 791 b 984 687 976 791 984 760 l 1286 687 l 1286 719 b 905 1016 1286 895 1253 1016 l 483 1016 b 85 694 102 1016 85 876 b 592 391 85 446 137 391 b 1016 298 981 391 1016 385 b 887 213 1016 220 951 213 l 517 213 b 386 328 430 213 388 221 l 84 328 l 84 259 m 569 1083 l 844 1083 l 1048 1358 l 816 1358 l 706 1210 l 596 1358 l 364 1358 l 569 1083 "},"ª":{"x_min":39.46875,"x_max":637,"ha":690,"o":"m 39 692 b 209 569 39 589 106 569 l 325 569 b 476 625 409 569 427 578 l 476 577 l 637 577 l 637 860 b 458 1016 637 962 574 1016 l 261 1016 b 57 879 117 1016 57 997 l 220 879 b 285 916 221 912 236 916 l 386 916 b 465 858 451 916 465 899 l 465 812 b 287 849 431 847 381 849 b 39 723 125 849 39 842 l 39 692 m 292 669 b 202 706 225 669 202 681 b 289 758 202 746 217 758 l 366 758 b 469 713 460 758 469 749 b 341 669 469 687 458 669 l 292 669 "},"Œ":{"x_min":40.828125,"x_max":1764,"ha":1853,"o":"m 40 352 b 475 -11 40 58 202 -11 l 650 -11 b 933 113 827 -11 884 22 l 936 113 l 936 0 l 1764 0 l 1764 241 l 1207 241 l 1207 402 l 1743 402 l 1743 611 l 1207 611 l 1207 772 l 1761 772 l 1761 1005 l 939 1005 l 939 875 l 936 875 b 673 1016 906 963 824 1016 l 475 1016 b 40 652 202 1016 40 947 l 40 352 m 334 618 b 524 758 334 736 374 758 l 715 758 b 905 618 865 758 905 736 l 905 423 b 715 247 905 269 865 247 l 524 247 b 334 423 374 247 334 269 l 334 618 "},"˛":{"x_min":14.96875,"x_max":455.96875,"ha":481,"o":"m 287 0 b 14 -266 96 -61 14 -173 b 202 -423 14 -351 69 -423 b 455 -323 310 -423 406 -373 l 431 -266 b 287 -323 392 -300 334 -323 b 186 -229 213 -323 186 -275 b 364 0 186 -156 223 -90 l 287 0 "},"ð":{"x_min":71.84375,"x_max":1037.28125,"ha":1132,"o":"m 333 387 b 511 519 333 488 391 519 l 574 519 b 775 402 743 519 775 496 l 775 305 b 574 188 775 210 743 188 l 511 188 b 333 320 391 188 333 219 l 333 387 m 387 745 l 533 851 b 784 644 643 822 737 762 l 781 641 b 577 719 726 712 667 719 l 359 719 b 71 438 225 719 71 671 l 71 269 b 359 -11 71 35 225 -11 l 750 -11 b 1037 269 883 -11 1037 35 l 1037 438 b 735 997 1034 748 925 914 l 818 1059 l 743 1138 l 607 1039 b 255 1072 506 1064 387 1072 l 191 880 b 382 876 251 880 316 880 l 382 873 l 312 825 l 387 745 "},"T":{"x_min":29.9375,"x_max":1181.453125,"ha":1236,"o":"m 29 755 l 454 755 l 454 0 l 756 0 l 756 755 l 1181 755 l 1181 1005 l 29 1005 l 29 755 "},"š":{"x_min":64.0625,"x_max":1012.765625,"ha":1099,"o":"m 64 220 b 393 -11 64 45 152 -11 l 641 -11 b 1012 224 939 -11 1012 37 b 676 457 1012 351 989 457 l 495 457 b 339 499 359 457 339 469 b 518 552 339 548 367 552 b 713 503 675 552 699 545 l 974 503 b 570 719 971 670 912 719 l 388 719 b 69 516 208 719 69 692 b 385 266 69 321 141 267 l 630 266 b 743 207 722 266 743 249 b 588 155 743 164 711 155 l 495 155 b 333 220 347 155 333 181 l 64 220 m 401 826 l 676 826 l 880 1101 l 649 1101 l 539 953 l 428 1101 l 197 1101 l 401 826 "},"℮":{"x_min":47.890625,"x_max":1166.734375,"ha":1239,"o":"m 1166 488 l 1166 502 b 605 1016 1166 786 916 1016 b 47 502 296 1016 47 786 b 605 -9 47 219 296 -9 b 1048 188 785 -9 948 69 l 968 188 b 607 18 879 86 751 18 b 264 170 473 18 352 77 b 253 202 257 179 253 190 l 253 481 b 260 488 253 487 256 488 l 1166 488 m 961 525 b 954 515 961 522 958 515 l 260 515 b 253 525 256 515 253 522 l 253 800 b 265 834 253 813 257 826 b 607 986 354 926 475 986 b 947 840 740 986 859 927 b 961 805 955 830 961 818 l 961 525 "},"Þ":{"x_min":102.078125,"x_max":1282.171875,"ha":1371,"o":"m 102 0 l 404 0 l 404 165 l 1004 165 b 1282 487 1218 165 1282 337 l 1282 573 b 925 918 1282 770 1212 918 l 404 918 l 404 1005 l 102 1005 l 102 0 m 404 668 l 847 668 b 971 561 939 668 971 629 l 971 522 b 873 415 971 462 944 415 l 404 415 l 404 668 "},"j":{"x_min":8.171875,"x_max":366.140625,"ha":481,"o":"m 366 708 l 104 708 l 104 5 b 35 -63 104 -40 85 -63 b 8 -61 28 -63 20 -62 l 8 -240 b 111 -247 35 -241 74 -247 b 366 -45 265 -247 366 -198 l 366 708 m 366 1005 l 104 1005 l 104 797 l 366 797 l 366 1005 "},"1":{"x_min":231.390625,"x_max":1009.953125,"ha":1372,"o":"m 732 0 l 1009 0 l 1009 1005 l 649 1005 l 231 727 l 368 526 l 732 763 l 732 0 "},"›":{"x_min":4,"x_max":399,"ha":411,"o":"m 4 106 l 234 106 l 399 352 l 234 595 l 4 595 l 167 352 l 4 106 "},"ı":{"x_min":104.8125,"x_max":366.140625,"ha":481,"o":"m 104 0 l 366 0 l 366 708 l 104 708 l 104 0 "},"ℓ":{"x_min":46,"x_max":918.46875,"ha":981,"o":"m 806 326 b 575 197 753 259 668 197 b 439 312 500 197 447 241 l 438 328 b 797 826 666 502 797 642 b 515 1091 797 965 708 1091 b 188 672 312 1091 188 969 l 188 383 b 46 292 142 353 89 320 l 118 166 b 194 213 146 183 164 197 b 197 203 195 210 195 206 b 510 -7 242 59 341 -7 b 918 215 657 -7 816 51 l 806 326 m 438 753 b 530 931 438 885 484 931 b 606 824 580 931 606 890 b 438 535 606 735 538 630 l 438 753 "},"ä":{"x_min":46.28125,"x_max":963.671875,"ha":1063,"o":"m 46 190 b 307 -10 46 23 148 -12 l 485 -10 b 715 80 616 -10 643 4 l 715 0 l 963 0 l 963 465 b 688 719 963 632 868 719 l 385 719 b 72 496 164 719 72 687 l 325 496 b 426 553 328 546 349 553 l 579 553 b 702 458 681 553 702 528 l 702 396 b 430 453 651 448 573 453 b 46 248 176 453 46 441 l 46 190 m 436 155 b 299 219 334 155 299 173 b 432 303 299 278 322 303 l 548 303 b 707 230 692 303 707 283 b 511 155 707 183 691 155 l 436 155 m 205 846 l 466 846 l 466 1054 l 205 1054 l 205 846 m 575 846 l 837 846 l 837 1054 l 575 1054 l 575 846 "},"<":{"x_min":64.09375,"x_max":752.8125,"ha":833,"o":"m 64 264 l 752 -11 l 752 170 l 294 351 l 752 532 l 752 714 l 64 439 l 64 264 "},"£":{"x_min":61.015625,"x_max":1286.015625,"ha":1372,"o":"m 84 0 l 1286 0 l 1286 225 l 394 225 l 394 229 b 465 384 453 268 465 316 l 896 384 l 896 576 l 465 576 l 465 709 b 576 800 465 779 482 800 l 898 800 b 1000 681 981 800 1000 775 l 1269 681 b 872 1016 1269 894 1192 1016 l 587 1016 b 174 711 341 1016 174 977 b 179 576 174 665 175 623 l 61 576 l 61 384 l 186 384 b 187 343 187 370 187 356 b 84 225 187 261 161 225 l 84 0 "},"¹":{"x_min":110.25,"x_max":639.71875,"ha":892,"o":"m 435 406 l 639 406 l 639 1005 l 381 1005 l 110 838 l 198 695 l 435 838 l 435 406 "},"t":{"x_min":21.78125,"x_max":850.703125,"ha":926,"o":"m 152 236 b 451 -11 152 40 291 -11 l 555 -11 b 850 226 763 -11 850 91 l 850 312 l 622 312 l 622 265 b 514 180 622 200 598 180 b 413 244 451 180 413 191 l 413 516 l 819 516 l 819 708 l 413 708 l 413 875 l 152 875 l 152 708 l 21 708 l 21 516 l 152 516 l 152 236 "},"¬":{"x_min":63.96875,"x_max":752.703125,"ha":833,"o":"m 564 175 l 752 175 l 752 618 l 63 618 l 63 426 l 564 426 l 564 175 "},"ù":{"x_min":89.828125,"x_max":1019.46875,"ha":1132,"o":"m 1019 708 l 758 708 l 758 351 b 579 197 758 250 691 197 l 519 197 b 351 301 405 197 351 231 l 351 708 l 89 708 l 89 301 b 477 -11 89 -4 315 -11 b 755 113 617 -11 709 15 l 758 113 l 758 0 l 1019 0 l 1019 708 m 507 826 l 724 826 l 549 1101 l 219 1101 l 507 826 "},"W":{"x_min":10.328125,"x_max":1807,"ha":1853,"o":"m 330 0 l 677 0 l 907 663 l 910 663 l 1140 0 l 1487 0 l 1807 1005 l 1511 1005 l 1302 266 l 1299 266 l 1048 1005 l 768 1005 l 518 266 l 515 266 l 305 1005 l 10 1005 l 330 0 "},"ï":{"x_min":-80.3125,"x_max":551.25,"ha":481,"o":"m 104 0 l 366 0 l 366 708 l 104 708 l 104 0 m -80 845 l 181 845 l 181 1054 l -80 1054 l -80 845 m 289 845 l 551 845 l 551 1054 l 289 1054 l 289 845 "},">":{"x_min":63.96875,"x_max":752.703125,"ha":833,"o":"m 63 -11 l 752 264 l 752 439 l 63 714 l 63 532 l 522 351 l 63 170 l 63 -11 "},"v":{"x_min":8.390625,"x_max":1002,"ha":1031,"o":"m 341 0 l 668 0 l 1002 708 l 717 708 l 505 208 l 292 708 l 8 708 l 341 0 "},"û":{"x_min":89.84375,"x_max":1019.15625,"ha":1132,"o":"m 1019 707 l 757 707 l 757 351 b 579 196 757 249 691 196 l 519 196 b 351 301 405 196 351 231 l 351 707 l 89 707 l 89 301 b 477 -11 89 -4 315 -11 b 755 113 617 -11 708 14 l 757 113 l 757 0 l 1019 0 l 1019 707 m 213 826 l 443 826 l 553 976 l 662 826 l 896 826 l 691 1101 l 416 1101 l 213 826 "},"Ò":{"x_min":80.3125,"x_max":1433.25,"ha":1544,"o":"m 80 352 b 514 -11 80 58 242 -11 l 999 -11 b 1433 352 1271 -11 1433 58 l 1433 652 b 999 1016 1433 947 1271 1016 l 514 1016 b 80 652 242 1016 80 947 l 80 352 m 390 556 b 579 758 390 681 420 758 l 933 758 b 1122 556 1092 758 1122 681 l 1122 448 b 950 247 1122 302 1092 247 l 563 247 b 390 448 420 247 390 302 l 390 556 m 709 1083 l 925 1083 l 751 1358 l 420 1358 l 709 1083 "},"&":{"x_min":90.65625,"x_max":1447.6875,"ha":1474,"o":"m 509 205 b 360 336 409 205 360 229 b 440 462 360 450 396 462 b 485 455 463 462 474 461 l 949 214 b 942 205 949 208 948 205 l 509 205 m 90 273 b 456 -11 90 47 234 -11 l 863 -11 b 1191 91 991 -11 1131 -2 l 1364 0 l 1447 189 l 1272 282 b 1283 397 1277 314 1283 340 l 1283 539 l 1038 539 l 1038 405 l 546 664 b 481 747 488 694 481 708 b 588 808 481 797 504 808 l 797 808 b 931 728 897 808 931 783 l 931 679 l 1193 679 l 1193 735 b 793 1016 1193 972 1136 1016 l 558 1016 b 203 786 251 1016 203 979 b 304 573 203 666 209 634 l 304 571 b 90 351 135 566 93 510 l 90 273 "},"˝":{"x_min":-124,"x_max":748,"ha":481,"o":"m -124 826 l 92 826 l 380 1101 l 50 1101 l -124 826 m 243 826 l 459 826 l 748 1101 l 417 1101 l 243 826 "},"Ð":{"x_min":19.0625,"x_max":1433.25,"ha":1544,"o":"m 112 0 l 1024 0 b 1433 350 1327 0 1433 101 l 1433 655 b 1024 1005 1433 904 1327 1005 l 112 1005 l 112 605 l 19 605 l 19 455 l 112 455 l 112 0 m 415 455 l 871 455 l 871 605 l 415 605 l 415 755 l 951 755 b 1131 575 1080 755 1131 718 l 1131 438 b 951 258 1131 295 1080 258 l 415 258 l 415 455 "},"I":{"x_min":118.421875,"x_max":420.578125,"ha":550,"o":"m 118 0 l 420 0 l 420 1005 l 118 1005 l 118 0 "},"ˉ":{"x_min":-92.5625,"x_max":563.5,"ha":481,"o":"m -92 880 l 563 880 l 563 1038 l -92 1038 l -92 880 "},"G":{"x_min":80.3125,"x_max":1365.203125,"ha":1475,"o":"m 80 352 b 514 -11 80 58 242 -11 l 877 -11 b 1365 291 1218 -11 1365 2 l 1365 577 l 687 577 l 687 369 l 1063 369 l 1063 340 b 905 230 1063 243 984 230 l 582 230 b 390 440 430 230 390 268 l 390 565 b 582 775 390 737 430 775 l 910 775 b 1063 662 1007 775 1063 762 l 1359 662 l 1359 694 b 969 1016 1359 890 1312 1016 l 514 1016 b 80 652 242 1016 80 947 l 80 352 "},"`":{"x_min":-100.96875,"x_max":404,"ha":481,"o":"m 187 826 l 404 826 l 229 1101 l -100 1101 l 187 826 "},"·":{"x_min":172.859375,"x_max":499.53125,"ha":686,"o":"m 172 480 b 336 313 172 388 246 313 b 499 480 426 313 499 388 b 336 647 499 572 426 647 b 172 480 246 647 172 572 "},"r":{"x_min":89.828125,"x_max":857.5,"ha":926,"o":"m 89 0 l 351 0 l 351 391 b 503 511 351 476 413 511 b 628 377 608 511 628 468 l 854 377 b 857 440 856 402 857 422 b 592 719 857 636 782 719 b 337 573 473 719 367 686 l 334 573 l 334 708 l 89 708 l 89 0 "},"¿":{"x_min":74.859375,"x_max":1056.21875,"ha":1132,"o":"m 74 0 b 441 -247 74 -211 228 -247 l 672 -247 b 1056 18 969 -247 1056 -172 l 1056 118 l 803 118 l 803 76 b 673 -47 803 2 770 -47 l 464 -47 b 328 50 356 -47 328 -25 b 526 154 328 119 363 127 b 748 368 703 183 748 225 l 748 423 l 487 423 b 317 330 487 373 470 352 b 74 73 155 308 74 284 l 74 0 m 470 502 l 756 502 l 756 769 l 470 769 l 470 502 "},"ý":{"x_min":4,"x_max":970,"ha":994,"o":"m 223 -241 b 329 -247 248 -243 280 -247 b 580 -130 461 -247 540 -216 l 970 708 l 687 708 l 487 215 l 287 708 l 4 708 l 322 30 l 414 30 b 244 -72 414 -51 348 -72 l 223 -72 l 223 -241 m 318 826 l 534 826 l 823 1101 l 492 1101 l 318 826 "},"x":{"x_min":8,"x_max":1002,"ha":1031,"o":"m 8 0 l 338 0 l 505 238 l 671 0 l 1002 0 l 705 371 l 977 708 l 638 708 l 505 516 l 371 708 l 32 708 l 304 371 l 8 0 "},"è":{"x_min":57.171875,"x_max":952.78125,"ha":1031,"o":"m 57 325 b 412 -11 57 22 239 -11 l 608 -11 b 952 205 797 -11 952 27 l 952 236 l 707 236 b 559 155 707 194 700 155 l 479 155 b 318 251 370 155 318 176 l 318 294 l 952 294 l 952 413 b 560 719 952 659 838 719 l 378 719 b 57 393 187 719 57 661 l 57 325 m 318 452 b 509 552 318 537 338 552 b 699 452 661 552 699 537 l 318 452 m 457 826 l 673 826 l 499 1101 l 168 1101 l 457 826 "},"º":{"x_min":46.28125,"x_max":675.109375,"ha":736,"o":"m 46 740 b 234 569 46 598 147 569 l 488 569 b 675 740 575 569 675 598 l 675 845 b 488 1016 675 987 575 1016 l 234 1016 b 46 845 147 1016 46 987 l 46 740 m 217 811 b 333 891 217 873 255 891 l 371 891 b 503 820 481 891 503 879 l 503 765 b 371 694 503 706 481 694 l 333 694 b 217 775 255 694 217 712 l 217 811 "},"Ø":{"x_min":66.328125,"x_max":1446.671875,"ha":1544,"o":"m 390 556 b 579 757 390 681 420 757 l 933 757 b 975 755 948 757 963 756 l 406 324 b 390 448 394 355 390 395 l 390 556 m 1103 677 b 1122 556 1118 644 1122 603 l 1122 448 b 949 247 1122 302 1092 247 l 563 247 b 534 248 552 247 541 247 l 1103 677 m 79 352 b 137 122 79 249 99 174 l 66 69 l 154 -37 l 246 32 b 514 -11 315 0 406 -11 l 998 -11 b 1433 352 1271 -11 1433 58 l 1433 652 b 1377 882 1433 753 1414 828 l 1446 935 l 1358 1042 l 1266 974 b 998 1016 1196 1004 1106 1016 l 514 1016 b 79 652 241 1016 79 946 l 79 352 "},"∞":{"x_min":66.6875,"x_max":1121.5625,"ha":1217,"o":"m 1121 412 b 875 673 1121 572 1011 672 b 605 509 737 676 662 575 b 330 673 528 611 446 673 b 66 401 181 673 66 563 b 315 134 66 240 185 134 b 592 304 436 134 515 206 b 868 134 694 163 789 134 b 1121 411 997 134 1121 236 l 1121 412 m 329 259 b 194 401 253 259 194 325 b 326 550 194 493 253 550 b 525 395 420 550 468 479 b 332 259 477 336 412 259 l 329 259 m 862 550 b 993 400 941 550 993 487 b 869 259 993 337 950 259 b 668 405 805 259 755 290 b 861 550 714 462 777 550 l 862 550 "},"μ":{"x_min":89.828125,"x_max":1019.46875,"ha":1132,"o":"m 89 -247 l 351 -247 l 351 66 l 353 66 b 536 -11 385 12 417 -11 b 755 113 661 -11 709 15 l 758 113 l 758 0 l 1019 0 l 1019 708 l 758 708 l 758 351 b 579 197 758 250 691 197 l 519 197 b 351 301 405 197 351 231 l 351 708 l 89 708 l 89 -247 "},"÷":{"x_min":63.96875,"x_max":752.703125,"ha":833,"o":"m 63 268 l 752 268 l 752 434 l 63 434 l 63 268 m 281 638 b 408 509 281 568 338 509 b 534 638 477 509 534 568 b 408 768 534 709 477 768 b 281 638 338 768 281 709 m 281 63 b 408 -65 281 -6 338 -65 b 534 63 477 -65 534 -6 b 408 193 534 134 477 193 b 281 63 338 193 281 134 "},"h":{"x_min":89.828125,"x_max":1019.46875,"ha":1132,"o":"m 89 0 l 351 0 l 351 356 b 529 511 351 458 417 511 l 589 511 b 758 406 703 511 758 476 l 758 0 l 1019 0 l 1019 406 b 631 719 1019 712 793 719 b 353 594 491 719 400 693 l 351 594 l 351 1005 l 89 1005 l 89 0 "},".":{"x_min":193.28125,"x_max":479.109375,"ha":686,"o":"m 193 0 l 479 0 l 479 283 l 193 283 l 193 0 "},";":{"x_min":151.078125,"x_max":479.109375,"ha":686,"o":"m 151 -247 b 479 31 434 -250 479 -215 l 479 283 l 193 283 l 193 0 l 269 0 l 269 -23 b 151 -88 269 -69 253 -88 l 151 -247 m 193 425 l 479 425 l 479 708 l 193 708 l 193 425 "},"f":{"x_min":21.78125,"x_max":650.609375,"ha":686,"o":"m 141 0 l 402 0 l 402 525 l 650 525 l 650 708 l 402 708 l 402 741 b 532 833 402 813 427 833 b 638 829 563 833 601 830 l 638 1009 b 461 1016 585 1011 532 1016 b 141 762 240 1016 141 956 l 141 708 l 21 708 l 21 525 l 141 525 l 141 0 "},"“":{"x_min":87.109375,"x_max":820.75,"ha":926,"o":"m 494 450 l 771 450 l 771 716 l 700 716 l 700 776 b 773 847 700 823 726 847 l 820 847 l 820 1005 l 754 1005 b 494 777 539 1005 494 937 l 494 450 m 87 450 l 364 450 l 364 716 l 294 716 l 294 776 b 366 847 294 823 319 847 l 413 847 l 413 1005 l 347 1005 b 87 777 132 1005 87 937 l 87 450 "},"A":{"x_min":5,"x_max":1474,"ha":1510,"o":"m 5 0 l 342 0 l 431 177 l 1043 177 l 1137 0 l 1474 0 l 932 1005 l 538 1005 l 5 0 m 734 772 l 930 394 l 544 394 l 734 772 "},"6":{"x_min":104.8125,"x_max":1239.96875,"ha":1372,"o":"m 539 205 b 390 318 423 205 390 231 b 544 427 390 402 421 427 l 808 427 b 962 318 931 427 962 402 b 813 205 962 231 929 205 l 539 205 m 104 341 b 457 -11 104 80 221 -11 l 887 -11 b 1239 268 1121 -11 1239 20 l 1239 355 b 896 636 1239 537 1188 636 l 615 636 b 390 559 496 636 439 609 l 390 679 b 537 800 390 758 434 800 l 803 800 b 952 708 909 800 952 776 l 1214 708 l 1214 787 b 850 1016 1214 915 1137 1016 l 536 1016 b 104 622 213 1016 104 927 l 104 341 "},"‘":{"x_min":72.140625,"x_max":398.8125,"ha":481,"o":"m 72 450 l 349 450 l 349 716 l 279 716 l 279 776 b 351 847 279 823 304 847 l 398 847 l 398 1005 l 332 1005 b 72 777 117 1005 72 937 l 72 450 "},"π":{"x_min":0,"x_max":1056.21875,"ha":1099,"o":"m 1033 552 l 1056 743 l 302 743 b 0 688 132 743 38 725 l 25 538 b 191 552 70 551 130 552 b 99 0 193 394 147 136 l 359 0 b 453 552 409 94 450 372 l 653 552 l 653 229 b 681 0 653 127 660 25 l 940 0 b 921 252 929 48 921 143 l 921 552 l 1033 552 "},"O":{"x_min":80.3125,"x_max":1433.25,"ha":1544,"o":"m 80 352 b 514 -11 80 58 242 -11 l 999 -11 b 1433 352 1271 -11 1433 58 l 1433 652 b 999 1016 1433 947 1271 1016 l 514 1016 b 80 652 242 1016 80 947 l 80 352 m 390 556 b 579 758 390 681 420 758 l 933 758 b 1122 556 1092 758 1122 681 l 1122 448 b 950 247 1122 302 1092 247 l 563 247 b 390 448 420 247 390 302 l 390 556 "},"n":{"x_min":89.828125,"x_max":1019.46875,"ha":1132,"o":"m 89 0 l 351 0 l 351 356 b 529 511 351 458 417 511 l 589 511 b 758 406 703 511 758 476 l 758 0 l 1019 0 l 1019 406 b 631 719 1019 712 793 719 b 353 594 491 719 400 693 l 351 594 l 351 708 l 89 708 l 89 0 "},"3":{"x_min":88.46875,"x_max":1256.3125,"ha":1372,"o":"m 88 250 b 412 -11 88 40 236 -11 l 914 -11 b 1256 263 1188 -11 1256 65 b 1071 502 1256 423 1230 475 l 1071 506 b 1234 738 1205 548 1234 569 b 800 1016 1234 961 1151 1016 l 597 1016 b 98 716 227 1016 98 987 l 98 661 l 383 661 l 383 704 b 511 800 383 779 413 800 l 811 800 b 948 702 901 800 948 780 b 833 605 948 630 931 605 l 551 605 l 551 397 l 861 397 b 970 300 954 397 970 366 b 865 205 970 231 959 205 l 504 205 b 374 312 400 205 374 227 l 374 356 l 88 356 l 88 250 "},"9":{"x_min":100.71875,"x_max":1244.0625,"ha":1372,"o":"m 100 217 b 446 -11 100 46 219 -11 l 812 -11 b 1244 382 1135 -11 1244 77 l 1244 663 b 891 1016 1244 924 1127 1016 l 461 1016 b 108 736 227 1016 108 984 l 108 649 b 451 368 108 467 160 368 l 733 368 b 958 445 852 368 909 395 l 958 325 b 811 204 958 246 914 204 l 496 204 b 378 285 409 204 378 220 l 100 285 l 100 217 m 540 577 b 386 686 417 577 386 602 b 534 799 386 773 419 799 l 809 799 b 958 686 925 799 958 773 b 803 577 958 602 926 577 l 540 577 "},"l":{"x_min":104.8125,"x_max":366.140625,"ha":481,"o":"m 104 0 l 366 0 l 366 1005 l 104 1005 l 104 0 "},"¤":{"x_min":272,"x_max":1073,"ha":1372,"o":"m 479 503 b 672 716 479 616 556 716 b 865 503 788 716 865 616 b 672 289 865 389 788 289 b 479 503 556 289 479 389 m 291 503 b 357 282 291 421 315 344 l 272 193 l 375 87 l 462 177 b 672 114 523 137 594 114 b 882 179 750 114 823 137 l 969 87 l 1073 193 l 987 283 b 1053 503 1029 344 1053 421 b 987 723 1053 584 1029 661 l 1073 812 l 969 918 l 882 828 b 672 892 823 868 750 892 b 462 828 594 892 523 868 l 375 918 l 272 812 l 357 723 b 291 503 315 662 291 586 "},"∂":{"x_min":44.921875,"x_max":951.421875,"ha":1035,"o":"m 163 866 b 402 929 200 887 284 929 b 696 604 592 929 696 780 l 696 573 l 695 573 b 426 709 665 618 575 709 b 44 340 191 709 44 540 b 430 -6 44 198 161 -6 b 951 565 730 -6 951 219 b 434 1120 951 897 732 1120 b 85 1027 251 1120 132 1056 l 163 866 m 458 180 b 303 340 371 180 303 245 b 488 527 303 447 381 527 b 668 395 590 527 656 444 b 461 180 653 288 571 180 l 458 180 "},"4":{"x_min":73.5,"x_max":1271.28125,"ha":1372,"o":"m 73 201 l 839 201 l 839 0 l 1125 0 l 1125 201 l 1271 201 l 1271 426 l 1125 426 l 1125 1005 l 777 1005 l 73 569 l 73 201 m 839 764 l 839 426 l 310 426 l 310 429 l 839 764 "},"p":{"x_min":89.828125,"x_max":1037.171875,"ha":1132,"o":"m 351 388 b 509 519 351 495 405 519 l 646 519 b 784 395 771 519 784 475 l 784 312 b 646 188 784 233 771 188 l 509 188 b 351 319 405 188 351 212 l 351 388 m 89 -247 l 351 -247 l 351 122 l 353 122 b 612 -11 412 9 464 -11 l 665 -11 b 1037 290 996 -11 1037 109 l 1037 418 b 665 719 1037 598 996 719 l 590 719 b 345 602 438 719 378 665 l 343 602 l 343 708 l 89 708 l 89 -247 "},"‡":{"x_min":132.03125,"x_max":877.921875,"ha":1031,"o":"m 394 0 l 615 0 l 615 190 l 877 190 l 877 373 l 615 373 l 615 631 l 877 631 l 877 815 l 615 815 l 615 1005 l 394 1005 l 394 815 l 132 815 l 132 631 l 394 631 l 394 373 l 132 373 l 132 190 l 394 190 l 394 0 "},"à":{"x_min":46.28125,"x_max":963.671875,"ha":1063,"o":"m 46 190 b 307 -10 46 23 148 -12 l 485 -10 b 715 80 616 -10 643 4 l 715 0 l 963 0 l 963 465 b 688 719 963 632 868 719 l 385 719 b 72 496 164 719 72 687 l 325 496 b 426 553 328 546 349 553 l 579 553 b 702 458 681 553 702 528 l 702 396 b 430 453 651 448 573 453 b 46 248 176 453 46 441 l 46 190 m 436 155 b 299 219 334 155 299 173 b 432 303 299 278 322 303 l 548 303 b 707 230 692 303 707 283 b 511 155 707 183 691 155 l 436 155 m 473 826 l 690 826 l 515 1101 l 185 1101 l 473 826 "},"Ü":{"x_min":102.078125,"x_max":1343.421875,"ha":1475,"o":"m 102 358 b 506 -11 102 108 228 -11 l 939 -11 b 1343 358 1216 -11 1343 108 l 1343 1005 l 1041 1005 l 1041 425 b 872 247 1041 297 996 247 l 573 247 b 404 425 449 247 404 297 l 404 1005 l 102 1005 l 102 358 m 406 1102 l 668 1102 l 668 1311 l 406 1311 l 406 1102 m 777 1102 l 1038 1102 l 1038 1311 l 777 1311 l 777 1102 "},"ó":{"x_min":72.15625,"x_max":1037.1875,"ha":1132,"o":"m 72 269 b 359 -11 72 36 225 -11 l 749 -11 b 1037 269 883 -11 1037 36 l 1037 438 b 749 719 1037 672 883 719 l 359 719 b 72 438 225 719 72 672 l 72 269 m 333 387 b 511 519 333 488 392 519 l 574 519 b 775 402 743 519 775 497 l 775 305 b 574 188 775 211 743 188 l 511 188 b 333 320 392 188 333 219 l 333 387 m 386 826 l 602 826 l 891 1101 l 560 1101 l 386 826 "},"√":{"x_min":39,"x_max":1078,"ha":1057,"o":"m 1078 1176 l 895 1176 l 606 128 b 576 8 595 84 585 42 l 574 8 b 534 123 561 47 548 84 l 349 594 l 39 463 l 82 347 l 202 397 l 473 -218 l 672 -218 l 1078 1176 "}}}
